<svg xmlns="http://www.w3.org/2000/svg" viewBox="0 0 32.57 32.57"><defs><style>.cls-1{fill:#fff;}</style></defs><g id="Layer_2" data-name="Layer 2"><g id="Layer_1-2" data-name="Layer 1"><path class="cls-1" d="M19,16.19a.63.63,0,0,1-.34.53,3,3,0,0,1-.88.34,9.45,9.45,0,0,1-1.2.19c-.43,0-.85.05-1.26.05a5.16,5.16,0,0,1-1.8-.23.87.87,0,0,1-.59-.86.86.86,0,0,1,.59-.87,5.16,5.16,0,0,1,1.8-.23c.41,0,.83,0,1.26.05a7.08,7.08,0,0,1,1.19.18,2.89,2.89,0,0,1,.88.33A.63.63,0,0,1,19,16.19Z"/><path class="cls-1" d="M16.29,0A16.29,16.29,0,1,0,32.57,16.28,16.28,16.28,0,0,0,16.29,0Zm9.52,18.4a2.79,2.79,0,0,1-1.26,1.28,4.24,4.24,0,0,1-1.88.39,4.39,4.39,0,0,1-1.77-.31,2.86,2.86,0,0,1-1.12-.83,3.42,3.42,0,0,1-.58-1.14c-.05-.19-.09-.38-.12-.56,0,.1-.09.19-.14.29a4,4,0,0,1-1.07,1.18,5.86,5.86,0,0,1-1.64.82,7,7,0,0,1-2.11.3,6.06,6.06,0,0,1-2.41-.45,4,4,0,0,1-1.64-1.26,3.26,3.26,0,0,1-.59-1.94,3.2,3.2,0,0,1,.58-1.91A3.62,3.62,0,0,1,11.67,13a6.06,6.06,0,0,1,2.43-.44,6.78,6.78,0,0,1,2.73.51,4.69,4.69,0,0,1,1.83,1.34A2.83,2.83,0,0,1,19,15V13.17h3.35v3a5.64,5.64,0,0,0,.08,1,1.46,1.46,0,0,0,.29.68.81.81,0,0,0,.65.25.84.84,0,0,0,.67-.25,1.34,1.34,0,0,0,.3-.66,4.6,4.6,0,0,0,.08-.84,4.7,4.7,0,0,0-.57-2.43,3.93,3.93,0,0,0-1.62-1.5,8.51,8.51,0,0,0-2.55-.78,22.64,22.64,0,0,0-3.34-.22,23.21,23.21,0,0,0-3.38.22,9.26,9.26,0,0,0-2.61.76,4.1,4.1,0,0,0-1.67,1.45,4.17,4.17,0,0,0-.59,2.29A4.44,4.44,0,0,0,9,18.9a5.57,5.57,0,0,0,2.66,1.75,13.74,13.74,0,0,0,4.3.59c.61,0,1.19,0,1.76-.07s1.08-.1,1.53-.17a7.6,7.6,0,0,0,1-.2l.54,1.64c-.27.07-.66.14-1.16.22s-1.08.14-1.73.19-1.32.08-2,.08a15.3,15.3,0,0,1-5.28-.79,6.59,6.59,0,0,1-3.26-2.32A6.26,6.26,0,0,1,6.3,16.05a5.69,5.69,0,0,1,1.14-3.69,6.61,6.61,0,0,1,3.37-2.06,19.56,19.56,0,0,1,5.48-.66,19.59,19.59,0,0,1,5.51.66,6.56,6.56,0,0,1,3.34,2.08,5.72,5.72,0,0,1,1.13,3.67A5,5,0,0,1,25.81,18.4Z"/></g></g></svg>