<?xml version="1.0" encoding="utf-8"?>
<!-- Generator: Adobe Illustrator 26.0.1, SVG Export Plug-In . SVG Version: 6.00 Build 0)  -->
<svg version="1.1" xmlns="http://www.w3.org/2000/svg" xmlns:xlink="http://www.w3.org/1999/xlink" x="0px" y="0px"
	 viewBox="0 0 36.1 36.1" style="enable-background:new 0 0 36.1 36.1;" xml:space="preserve">
<style type="text/css">
	.st0{fill:#444444;}
	.st1{fill:none;stroke:#231F20;stroke-width:0.1;stroke-miterlimit:10;}
</style>
<g id="Layer_2">
	<ellipse transform="matrix(0.2298 -0.9732 0.9732 0.2298 -3.6621 31.4527)" class="st0" cx="18" cy="18" rx="18" ry="18"/>
</g>
<g id="Guidelines__x28_hide_me_at_export_x21__x29_">
	<g id="Layer_2_00000005265165290146390970000004414485418633437350_">
		<g id="Layer_1-2">
			<circle class="st1" cx="18" cy="18" r="18"/>
			<polyline class="st1" points="7,32.3 7,29.1 7,22.6 7,13.5 7,7 7,3.8 			"/>
			<polyline class="st1" points="29.1,32.3 29.1,29.1 29.1,22.6 29.1,13.5 29.1,7 29.1,3.8 			"/>
			<polyline class="st1" points="32.3,7 29.1,7 22.6,7 13.5,7 7,7 3.8,7 			"/>
			<polyline class="st1" points="3.8,29.1 7,29.1 13.5,29.1 22.6,29.1 29.1,29.1 32.3,29.1 			"/>
			<polyline class="st1" points="20.3,35.9 18,33.7 13.5,29.1 7,22.6 2.4,18 0.2,15.8 			"/>
			<polyline class="st1" points="35.9,20.3 33.7,18 29.1,13.5 22.6,7 18,2.4 15.8,0.2 			"/>
			<polyline class="st1" points="20.3,0.2 18,2.4 13.5,7 7,13.5 2.4,18 0.2,20.3 			"/>
			<polyline class="st1" points="15.8,35.9 18,33.7 22.6,29.1 29.1,22.6 33.7,18 35.9,15.8 			"/>
		</g>
	</g>
</g>
</svg>
