<?xml version="1.0" encoding="utf-8"?>
<!-- Generator: Adobe Illustrator 26.0.1, SVG Export Plug-In . SVG Version: 6.00 Build 0)  -->
<svg version="1.1" id="Layer_1" xmlns="http://www.w3.org/2000/svg" xmlns:xlink="http://www.w3.org/1999/xlink" x="0px" y="0px"
	 viewBox="0 0 32.6 32.6" style="enable-background:new 0 0 32.6 32.6;" xml:space="preserve">
<style type="text/css">
	.st0{fill:#FFFFFF;}
</style>
<g id="Layer_2_00000060713774754465963830000009458778859499132606_">
	<g id="Layer_1-2">
		<path class="st0" d="M16.3,0C7.3,0,0,7.3,0,16.3s7.3,16.3,16.3,16.3s16.3-7.3,16.3-16.3l0,0C32.6,7.3,25.3,0,16.3,0z M19,25.3
			h-6.5v-3.9H19V25.3z M25.2,17.5c-0.7,0.9-1.7,1.6-2.9,2c-1.3,0.5-2.6,0.7-3.9,0.7h-5.9v-3.8H16c1,0.1,2-0.1,3-0.5
			c0.5-0.3,0.9-0.8,0.9-1.4c0.1-0.7-0.4-1.3-1-1.6C18,12.5,17,12.4,16,12.4c-0.8,0-1.5,0-2.2,0.2c-0.4,0.1-0.8,0.3-1.1,0.5
			c-0.2,0.2-0.3,0.3-0.4,0.6h-6c0-0.4,0-0.9,0.1-1.3c0.2-0.6,0.4-1.2,0.8-1.7C7.7,10,8.3,9.5,9,9.1c0.9-0.6,1.8-1,2.8-1.3
			c1.4-0.3,2.8-0.5,4.2-0.5c1.6,0,3.3,0.1,4.9,0.5C22,8.1,23.1,8.6,24,9.3c0.7,0.6,1.3,1.3,1.7,2.2c0.3,0.9,0.5,1.8,0.5,2.7
			C26.3,15.4,25.9,16.5,25.2,17.5L25.2,17.5z"/>
	</g>
</g>
<g>
	<path class="st0" d="M58.6,6.1c0,0.2-0.1,0.4-0.3,0.5C58,6.8,57.7,6.9,57.4,7c-0.4,0-0.8,0.1-1.2,0.2c-0.4,0-0.8,0-1.3,0
		c-0.8,0-1.4-0.1-1.8-0.2c-0.4-0.2-0.6-0.5-0.6-0.9s0.2-0.7,0.6-0.9C53.5,5,54.1,5,54.9,5c0.4,0,0.8,0,1.3,0c0.4,0,0.8,0.1,1.2,0.2
		s0.7,0.2,0.9,0.3C58.5,5.7,58.6,5.9,58.6,6.1z"/>
	<path class="st0" d="M55.9-10.1c-9,0-16.3,7.3-16.3,16.3s7.3,16.3,16.3,16.3s16.3-7.3,16.3-16.3C72.1-2.8,64.8-10.1,55.9-10.1z
		 M65.4,8.3c-0.3,0.6-0.7,1-1.3,1.3C63.6,9.8,63,10,62.2,10c-0.7,0-1.3-0.1-1.8-0.3s-0.8-0.5-1.1-0.8c-0.3-0.4-0.5-0.7-0.6-1.1
		c-0.1-0.2-0.1-0.4-0.1-0.6c0,0.1-0.1,0.2-0.1,0.3c-0.2,0.4-0.6,0.8-1.1,1.2c-0.5,0.3-1,0.6-1.6,0.8s-1.3,0.3-2.1,0.3
		c-0.9,0-1.7-0.2-2.4-0.5C50.6,9,50,8.5,49.6,8C49.2,7.5,49,6.8,49,6.1s0.2-1.4,0.6-1.9c0.4-0.5,0.9-1,1.6-1.2
		c0.7-0.3,1.5-0.4,2.4-0.4c1,0,2,0.2,2.7,0.5c0.8,0.3,1.4,0.8,1.8,1.3c0.2,0.2,0.3,0.4,0.4,0.6V3.1H62v3c0,0.3,0,0.7,0.1,1
		c0,0.3,0.1,0.5,0.3,0.7C62.5,8,62.8,8,63,8c0.3,0,0.5-0.1,0.7-0.2c0.1-0.2,0.2-0.4,0.3-0.7c0.1-0.3,0-0.6,0-0.9
		c0-1-0.2-1.8-0.6-2.4c-0.4-0.6-0.9-1.1-1.6-1.5c-0.7-0.4-1.5-0.6-2.5-0.8S57.2,1.3,56,1.3s-2.4,0.1-3.4,0.2c-1,0.2-1.9,0.4-2.6,0.8
		c-0.7,0.4-1.3,0.8-1.7,1.5C47.9,4.3,47.7,5,47.7,6c0,1.1,0.3,2.1,0.9,2.8c0.6,0.8,1.5,1.4,2.7,1.8c1.2,0.4,2.6,0.6,4.3,0.6
		c0.6,0,1.2,0,1.8-0.1c0.6,0,1.1-0.1,1.5-0.2c0.5-0.1,0.8-0.1,1.1-0.2l0.5,1.6c-0.3,0.1-0.7,0.1-1.2,0.2s-1.1,0.1-1.7,0.2
		c-0.6,0-1.3,0.1-2,0.1c-2.1,0-3.9-0.3-5.3-0.8c-1.4-0.5-2.5-1.3-3.3-2.3c-0.7-1-1.1-2.3-1.1-3.8s0.4-2.8,1.1-3.7s1.9-1.6,3.4-2.1
		c1.5-0.4,3.3-0.7,5.5-0.7s4,0.2,5.5,0.7s2.6,1.1,3.3,2.1s1.1,2.2,1.1,3.7C65.8,6.9,65.7,7.7,65.4,8.3z"/>
</g>
</svg>
