<svg id="Layer_1" data-name="Layer 1" xmlns="http://www.w3.org/2000/svg" viewBox="0 0 1000 999.9959">
  <g>
    <polygon points="466.86 532.3 525.03 377.96 525.04 377.95 582.979 532.1 582.979 532.11 583.05 532.3 466.86 532.3" style="fill: #fff"/>
    <path d="M774.5,383.1c-.15.15-.3.31-.46.46h.1c.47-.48.66-.69,1.1-1.18,1.06-1.09,2.09-2.26,3.07-3.42h.01c.06-.07.12-.14.17-.21C777.46,379.87,774.81,382.79,774.5,383.1ZM913.88,251.98c-2.15-.09-4.32-.32-6.47-.59,2.16.28,4.33.51,6.48.61.71.03,1.42.05,2.12.05.8,0,1.61-.03,2.4-.08A38.0543,38.0543,0,0,1,913.88,251.98Zm-43.79,3.5q1.4253-.705,2.85-1.32C871.99,254.56,871.04,255.01,870.09,255.48Zm-56.98,20.05c.8.43,1.58.89,2.32,1.38A24.4651,24.4651,0,0,0,813.11,275.53Z" style="fill: #fff"/>
    <path d="M927.41,400.14c-.14.37-.29.75-.46,1.12-.12.27-.24.53-.36.8l-.02-.01C926.86,401.42,927.14,400.78,927.41,400.14Z" style="fill: #fff"/>
    <path id="fullLogo" d="M811.1741,884.3885q6.6333-1.9446,13.2671-3.9476a500.802,500.802,0,0,1-484.18,93.4953C499.2689,957.1581,657.2983,928.0031,811.1741,884.3885Z" style="fill: #fff"/>
    <path id="fullLogo-2" data-name="fullLogo" d="M878.47,826.747q-10.1936,11.8084-21.14,22.9687l-.0113.0116c-1.5861.5209-3.1486,1.03-4.7234,1.5395-176.473,55.7474-360.0238,88.7379-544.0674,106.45-2.8128.2547-5.603.4862-8.44.7061q-15.5067-6.755-30.4357-14.5407C475.8123,928.014,681.8626,891.4114,878.47,826.747Z" style="fill: #fff"/>
    <path d="M201.67,901.05c-.11-.01-.24-.03-.35-.05q-7.14-5.31-14.08-10.89c.23.04.47.08.7.12h.02c1.1.9,2.2,1.8,3.3095,2.69s2.21,1.77,3.33,2.65c1.01.8,2.02,1.59,3.03,2.38,1.01.78,2.03,1.57,3.06,2.35.06.04.12.09.19.13.07.05.13.1.2.16.1.08.21.16.32.25A2.5449,2.5449,0,0,1,201.67,901.05Z" style="fill: #fff"/>
    <g>
      <path d="M583.05,532.3h-.19a2.0386,2.0386,0,0,1,.12-.19Z" style="fill: #fff"/>
      <path d="M778.49,378.75c-.05.07-.11.14-.17.21h-.01c-.98,1.16-2.01,2.33-3.07,3.42-.44.49-.63.7-1.1,1.18h-.1c.16-.15.31-.31.46-.46C774.81,382.79,777.46,379.87,778.49,378.75Z" style="fill: #fff"/>
      <path d="M927.41,400.14c-.14.37-.29.75-.46,1.12-.12.27-.24.53-.36.8l-.02-.01C926.86,401.42,927.14,400.78,927.41,400.14Z" style="fill: #fff"/>
      <path id="fullLogo-3" data-name="fullLogo" d="M201.4,900.84c-.11-.09-.22-.17-.32-.25-.07-.06-.13-.11-.2-.16-.07-.04-.13-.09-.19-.13-1.03-.78-2.05-1.57-3.06-2.35-1.01-.79-2.02-1.58-3.03-2.38-1.12-.88-2.22-1.76-3.33-2.65s-2.21-1.79-3.3095-2.69h-.02c-.23-.04-.47-.08-.7-.12q6.93,5.5648,14.08,10.89c.11.02.24.04.35.05A2.5449,2.5449,0,0,0,201.4,900.84Z" style="fill: #fff"/>
    </g>
    <g>
      <path d="M228.14,919.69q9.6753-.345,19.35-.82c115.07-5.56,229.32-23.12,342.37-44.75,101.63-20.62,203.91-42.85,300.92-80.08q9.54-3.66,19.03-7.52a501.19,501.19,0,0,0,75.18-408.57H955.06c.85-.98,1.78-1.96,2.8-2.96a64.8374,64.8374,0,0,0,11.12-14.1,55.1938,55.1938,0,0,0,6.04-15.61l.28-.93.18-.62v-.49a99.7673,99.7673,0,0,1,7.58-21.48l.36-.76c.58-1.17,1.22-2.42,1.96-3.81.97-1.82,2.04-3.72,3.19-5.64a85.7721,85.7721,0,0,0,6.37-14.1q.57-1.53,1.17-3.06a26.2856,26.2856,0,0,0,1.71-11.27l-.56-8.01a27.7314,27.7314,0,0,0-1.56-7.43c-.68-1.89-1.41-3.66-2.11-5.36-.44-1.06-.99-2.39-1.44-3.58l-8.8-16.15,12.01-2.2-11.58-10.48,2.07-15.49-13.55,7.79-14.08-6.73,2.75,13.05c-9.01-1.4-22.96,1.76-30,4.39-.04.02-.09.03-.13.05-2.33.87-4.52,1.63-6.59,2.3C835.9,93.98,678.92,0,500,0,223.86,0,0,223.86,0,500A497.9456,497.9456,0,0,0,123.79,829.31c-7.46,4.96-13.01,9.91-16.92,15.12-4.8,6.42-7.09,13.19-6.78,20.12.72,16.47,13.58,29.4,38.24,38.4,19.63,7.17,44.17,11,61.29,12.95ZM17.58,499.99C17.58,233.56,233.57,17.57,500,17.57c168.88,0,317.5,86.78,403.68,218.18a79.3869,79.3869,0,0,0-10.38-.7c-1.33,0-2.65.04-3.95.11C804.61,110.8,661.84,29.15,500,29.15c-260.04,0-470.84,210.8-470.84,470.84A469.0594,469.0594,0,0,0,150.25,815.22c-2.38,1.06-4.66,2.11-6.82,3.14l-.05.03-.05.02-.57.28c-.29.14-.57.28-.85.41l-.07.04-.06.03c-.82.4-1.63.8-2.43,1.21A480.53,480.53,0,0,1,17.58,499.99ZM419.86,696.11H323.23l9.28-16.94.04-.03v-.01L252.14,532.3H216.92V696.11H148.79V309.53H266.61q13.92,0,27.37,1.3c2.24.21,4.47.46,6.69.73q9.99,1.2151,19.72,3.16a153.7185,153.7185,0,0,1,18.65,4.93,129.35,129.35,0,0,1,27.49,12.81q3.78,2.3548,7.28,5.01a.01.01,0,0,0,.01.01q1.8,1.365,3.52,2.82a91.5164,91.5164,0,0,1,11.25,11.28c1.25,1.49,2.46,3.04,3.63,4.63a99.1558,99.1558,0,0,1,6.52,10.1c.25.44.5.9.74,1.35q1.0958,2.07,2.07,4.29.99,2.235,1.86,4.62c.39,1.05.77,2.13,1.12,3.24a114.7816,114.7816,0,0,1,3.87,15.94c.23,1.33.44,2.67.63,4.03.35,2.41.64,4.87.87,7.36.02.12.03.25.04.37.48,5.22.72,10.58.72,15.98,0,5.26-.17,10.5-.54,15.67-.06.86-.12,1.72-.2,2.57-.21,2.57-.48,5.13-.81,7.65q-.315,2.52-.72,5.01a123.0759,123.0759,0,0,1-5.24,21.28q-.7655,2.235-1.65,4.38A81,81,0,0,1,396.52,490.3c-.74,1.29-1.53,2.55-2.35,3.78-.81,1.23-1.67,2.43-2.56,3.59-.47.61-.93,1.2-1.41,1.79q-2.1146,2.6549-4.33,5.1a80.85,80.85,0,0,1-23.59,18.26c-1.29.66-2.62,1.29-3.97,1.88-2.03.9-4.14,1.73-6.31,2.49a103.3555,103.3555,0,0,1-14.05,3.79c-1.67.34-3.38.65-5.14.92-.87.14-1.76.28-2.66.4l37.37,68.25.01.01,2.01-5.24L473.76,323.9a23.8052,23.8052,0,0,1,1.19-2.37,24.8981,24.8981,0,0,1,1.42-2.19,23.9272,23.9272,0,0,1,19.32-9.81H761.77a57.7991,57.7991,0,0,0,3.15,7.42,67.7007,67.7007,0,0,0,19.28,22.89,103.4068,103.4068,0,0,1-16.11,27.98l-1.23,1.45c-.94,1.11-1.7,1.96-2.39,2.67l-.2.21-.2.22c-.27.3-.31.35-.65.69l-4.28,4.37v.52h-8.39V672.36a24.6015,24.6015,0,0,1-6,15.56,25.1,25.1,0,0,1-17.76,8.19H644.71l-36.06-95.57H440.66l-30.08,78.63ZM249.67,204.39l16.34,8.59,16.34-8.59-3.12,18.2,13.22,12.88-18.27,2.65-8.17,16.57-8.18-16.57-18.26-2.65,13.22-12.88Zm62.25-69.84,16.35,8.59,16.33-8.59-3.11,18.2,13.22,12.89-18.27,2.65-8.17,16.55-8.18-16.55-18.26-2.65,13.22-12.89Zm83.66-49.2,16.34,8.59,16.34-8.59-3.12,18.19,13.22,12.88-18.28,2.67-8.16,16.55-8.17-16.55L385.48,116.42l13.22-12.88Zm64.06,119.04,16.35,8.59,16.34-8.59-3.12,18.2,13.22,12.88-18.27,2.65-8.17,16.57-8.18-16.57-18.26-2.65,13.22-12.88Zm53.56-69.84,16.33,8.59,16.35-8.59-3.13,18.2,13.22,12.89-18.27,2.65-8.17,16.55-8.17-16.55-18.27-2.65,13.22-12.89Zm74.93-49.2,16.34,8.59,16.35-8.59-3.13,18.19,13.22,12.88-18.27,2.67-8.17,16.55-8.16-16.55-18.27-2.67,13.22-12.88Zm78.38,41.96,16.35,8.59,16.33-8.59-3.11,18.18,13.22,12.9-18.27,2.65-8.17,16.56-8.18-16.56-18.27-2.65,13.22-12.9Zm290.54,476c-1.36,1.52-5.25,1.38-6.14,1.22-2.84-.5-13.08-1.85-15.2-11.34a3.1724,3.1724,0,0,0-1.75-2.02c-6.49-2.54-12.9805-6.86-19.57-6.99-17.05-.36-34.15,1.06-51.22,2.08-1.44.09-3.48,2.28-3.96,3.88-1.64,5.43-2.37,11.13-4.03,16.55-9.66,31.28-20.57,62.03-35.99,91.12-8.06,15.21-14.71,31.2-21.21,47.16-2.92,7.15.89,10.59,8.54,9.79,15.02-1.56,30.07-3.56,45.13-3.93,11.89-.31,23.85,1.36,35.72,2.57,4.03.41,6.82,2.51,8.88,6.11,1.37,2.42-.09,4.96-2.54,6.28-6.01,3.23-6.01,3.23-16.33,3.85-31.66,1.89-63.3,4.19-94.94,6.28-4.41.31-8.79,1.14-14.2,1.87,3.89,1.91,6.91,3.4,9.79,4.83a12.07,12.07,0,0,1,3.57,2.55q1.815,1.95,1.47,3.36-1.125,4.4546-23.82,3.49c-50.09-7.26-77.64-6.52-93.91-5.04-11.15,1.02-22.6,1.37-33.65-.02-10.16-1.26-26.65-4.1-29.3-7.6,0,.25-16.88-12.22-52.04-6.08-21.81,3.62-295.39,39.3-387.48,74.13-1.74.66-3.42,1.31-5.03,1.98-3.99,1.63-7.56,3.26-10.67,4.88-.54.28-1.08.56-1.6.85h-.01c-23.01,12.64-13.82,24.85,41.68,34.99.23.04.47.08.7.12h.02c1.1.9,2.2,1.8,3.3095,2.69s2.21,1.77,3.33,2.65c1.01.8,2.02,1.59,3.03,2.38,1.01.78,2.03,1.57,3.06,2.35.06.04.12.09.19.13.07.05.13.1.2.16.1.08.21.16.32.25a2.5449,2.5449,0,0,1,.27.21c-.11-.01-.24-.03-.35-.05-40.21-4.58-85.3-15.42-86.24-37.11-.29-6.5,4.61-13.94,17.43-22.36.48-.31.96-.62,1.46-.94q4.3052-2.7449,9.77-5.6,2.22-1.17,4.63-2.35c.51-.24,1.02-.5,1.54-.75q5.1452-2.4748,11.19-5.04c52.94-22.56,159.02-50.74,355.03-85.02,66.66-11.67,79.53-6.39,80.11-6.23a3.3856,3.3856,0,0,0-.37-.48c-2.72-6.13-4.87-11.4-7.35-16.49-9.03-18.43-20.07-35.83-24.7-56.34a198.5261,198.5261,0,0,1-5.29-46.75h39.75l32.4,85.86,3.66,9.71h92.84l.18-.01a39.1093,39.1093,0,0,0,38.39-38.43V391.07a107.3433,107.3433,0,0,0,8.29-7.51c.16-.15.31-.31.46-.46.31-.31,2.96-3.23,3.99-4.35.07-.07.13-.14.19-.21.16-.19.33-.39.48-.59a120.2155,120.2155,0,0,0,20.47-36.53c.33-.9.65-1.8.96-2.73,1.12-3.28.72-5.12-2.37-7.2-8.36-5.62-15.44-12.43-19.92-21.33-.11-.21-.21-.42-.31-.63a44.8228,44.8228,0,0,1-2.21-5.35c-4.02-11.85-.76-24.4,7.54-29.44a25.582,25.582,0,0,1,13.23-3.32,36.0854,36.0854,0,0,1,14.51,3.1c.28.13.56.26.83.39.41.2.82.41,1.22.62a24.4651,24.4651,0,0,1,2.32,1.38c.37.25.73.5,1.09.76.24.17.47.35.7.53s.46.36.68.55c.33.28.66.56.97.87.1.09.2.18.3.28.2.2.41.4.6.61a19.1741,19.1741,0,0,1,2.1,2.61c1.49,2.22,2.96,4.44,4.43,6.66l1.53.02c-2.22-6.21,13.27-5.04,4.31-14.29,4.68-2.2,9.23-4.33,14.99-7.06-3.29-.47-5.28-.76-8.33-1.2,3.21-1.45,5.45-2.64,7.84-3.48,7.82-2.78,16.08-4.63,23.45-8.29.95-.47,1.9-.92,2.85-1.32q2.1446-.9151,4.29-1.62,2.1606-.705,4.32-1.2c.97-.22,1.93-.41,2.9-.57,1.46-.25,2.92-.43,4.4-.54,1.47-.12,2.95-.18,4.45-.18,1.97,0,3.95.1,5.97.29,1,.09,2.01.21,3.03.35,1.67.23,3.38.48,5.11.7,2.15.27,4.32.5,6.47.59a38.0543,38.0543,0,0,0,4.53-.01,26.1413,26.1413,0,0,0,2.95-.35,18.075,18.075,0,0,0,2.32-.51c2.87-.8,5.7-1.7,8.51-2.69,1.3-.45,2.6-.92,3.89-1.4,5.87-2.19,10.79-4.2,16.85-5.84h.01l13.1,1.67,6.74,13.06.03-.06c2.03,5.46,7.08,12.17,8.77,16.89a13.28,13.28,0,0,1,.72,3.41l.55,8.01a10.9258,10.9258,0,0,1-.71,4.77c-1.98,5.06-3.69,10.3-6.44,14.91-1.25,2.09-2.45,4.2-3.57,6.32q-1.3506,2.535-2.59,5.08v.01c-.9,1.88-1.76,3.77-2.56,5.68a113.2414,113.2414,0,0,0-5.56,16.61q-.45,1.7852-.84,3.6c-.04.13-.07.27-.1.4v.01c0,.02-.01.03-.01.04-1.89,8.94-6.52,16.25-13.09,22.67a54.76,54.76,0,0,0-9.45,11.94c-.33.58-.65,1.16-.96,1.75-.17.32-.33.64-.5.96-3.51,6.8-5.99,14.13-9.05,21.19.01.01,0,.03-.01.04-.14.37-.29.75-.46,1.12-.12.27-.24.53-.36.8-9.82,21.93-14.07,44.37-8.26,68.4,1.63,6.77,1.04,14.27.43,21.34-.77,8.58-2.95,17.01-3.97,25.57-1.76,14.85,7.31,30.93,20.75,37.39a71.9185,71.9185,0,0,1,28.15,24.73,12.6148,12.6148,0,0,1,2.03,5.16C966.76,591.86,961.99,597.85,957.05,603.31Z" style="fill: #fff"/>
      <polygon points="583.05 532.3 466.86 532.3 525.03 377.96 525.04 377.95 582.979 532.1 582.979 532.11 583.05 532.3" style="fill: #fff"/>
      <polygon points="681.95 377.95 681.95 601.05 681.94 601.02 633.27 472.45 597.5 377.95 681.95 377.95" style="fill: #fff"/>
    </g>
    <path d="M815.43,276.91c-.74-.49-1.52-.95-2.32-1.38A24.4651,24.4651,0,0,1,815.43,276.91Z" style="fill: #fff"/>
    <path d="M872.94,254.16q-1.4253.6148-2.85,1.32C871.04,255.01,871.99,254.56,872.94,254.16Z" style="fill: #fff"/>
    <path d="M918.41,251.97c-.79.05-1.6.08-2.4.08-.7,0-1.41-.02-2.12-.05-2.15-.1-4.32-.33-6.48-.61,2.15.27,4.32.5,6.47.59A38.0543,38.0543,0,0,0,918.41,251.97Z" style="fill: #fff"/>
    <path id="logoMark" d="M774.5,383.1c-.15.15-.3.31-.46.46h.1c.47-.48.66-.69,1.1-1.18,1.06-1.09,2.09-2.26,3.07-3.42h.01c.06-.07.12-.14.17-.21C777.46,379.87,774.81,382.79,774.5,383.1ZM913.88,251.98c-2.15-.09-4.32-.32-6.47-.59,2.16.28,4.33.51,6.48.61.71.03,1.42.05,2.12.05.8,0,1.61-.03,2.4-.08A38.0543,38.0543,0,0,1,913.88,251.98Zm-43.79,3.5q1.4253-.705,2.85-1.32C871.99,254.56,871.04,255.01,870.09,255.48Zm-56.98,20.05c.8.43,1.58.89,2.32,1.38A24.4651,24.4651,0,0,0,813.11,275.53ZM774.5,383.1c-.15.15-.3.31-.46.46h.1c.47-.48.66-.69,1.1-1.18,1.06-1.09,2.09-2.26,3.07-3.42h.01c.06-.07.12-.14.17-.21C777.46,379.87,774.81,382.79,774.5,383.1ZM913.88,251.98c-2.15-.09-4.32-.32-6.47-.59,2.16.28,4.33.51,6.48.61A.0352.0352,0,0,0,913.88,251.98Zm-43.79,3.5q1.4253-.705,2.85-1.32C871.99,254.56,871.04,255.01,870.09,255.48Zm-56.98,20.05c.8.43,1.58.89,2.32,1.38A24.4651,24.4651,0,0,0,813.11,275.53ZM774.5,383.1c-.15.15-.3.31-.46.46h.1c.47-.48.66-.69,1.1-1.18,1.06-1.09,2.09-2.26,3.07-3.42h.01c.06-.07.12-.14.17-.21C777.46,379.87,774.81,382.79,774.5,383.1ZM913.88,251.98c-2.15-.09-4.32-.32-6.47-.59,2.16.28,4.33.51,6.48.61A.0352.0352,0,0,0,913.88,251.98Zm-43.79,3.5q1.4253-.705,2.85-1.32C871.99,254.56,871.04,255.01,870.09,255.48Zm-56.98,20.05c.8.43,1.58.89,2.32,1.38A24.4651,24.4651,0,0,0,813.11,275.53ZM926.57,402.05l.02.01c.12-.27.24-.53.36-.8.17-.37.32-.75.46-1.12C927.14,400.78,926.86,401.42,926.57,402.05ZM774.5,383.1c-.15.15-.3.31-.46.46h.1c.47-.48.66-.69,1.1-1.18,1.06-1.09,2.09-2.26,3.07-3.42h.01c.06-.07.12-.14.17-.21C777.46,379.87,774.81,382.79,774.5,383.1ZM913.88,251.98c-2.15-.09-4.32-.32-6.47-.59,2.16.28,4.33.51,6.48.61A.0352.0352,0,0,0,913.88,251.98Zm-43.79,3.5q1.4253-.705,2.85-1.32C871.99,254.56,871.04,255.01,870.09,255.48Zm-56.98,20.05c.8.43,1.58.89,2.32,1.38A24.4651,24.4651,0,0,0,813.11,275.53ZM774.5,383.1c-.15.15-.3.31-.46.46h.1c.47-.48.66-.69,1.1-1.18,1.06-1.09,2.09-2.26,3.07-3.42h.01c.06-.07.12-.14.17-.21C777.46,379.87,774.81,382.79,774.5,383.1ZM913.88,251.98c-2.15-.09-4.32-.32-6.47-.59,2.16.28,4.33.51,6.48.61A.0352.0352,0,0,0,913.88,251.98Zm-43.79,3.5q1.4253-.705,2.85-1.32C871.99,254.56,871.04,255.01,870.09,255.48Zm-56.98,20.05c.8.43,1.58.89,2.32,1.38A24.4651,24.4651,0,0,0,813.11,275.53ZM774.5,383.1c-.15.15-.3.31-.46.46h.1c.47-.48.66-.69,1.1-1.18,1.06-1.09,2.09-2.26,3.07-3.42h.01c.06-.07.12-.14.17-.21C777.46,379.87,774.81,382.79,774.5,383.1ZM913.88,251.98c-2.15-.09-4.32-.32-6.47-.59,2.16.28,4.33.51,6.48.61A.0352.0352,0,0,0,913.88,251.98Zm-43.79,3.5q1.4253-.705,2.85-1.32C871.99,254.56,871.04,255.01,870.09,255.48Zm-56.98,20.05c.8.43,1.58.89,2.32,1.38A24.4651,24.4651,0,0,0,813.11,275.53Z" style="fill: #fff"/>
    <path d="M216.92,377.96c91.3432,0,121.67,0,121.791,43.15s-30.4478,43.15-121.791,43.15Z" style="fill: #fff"/>
  </g>
</svg>
