<svg id="Layer_1" data-name="Layer 1" xmlns="http://www.w3.org/2000/svg" viewBox="0 0 1000 999.9999">
  <path id="logoMark" d="M968.6377,249.7984l2.5936,37.27a51.0418,51.0418,0,0,1-3.3188,22.1548c-9.2275,23.5685-17.1407,47.9359-29.9575,69.3923q-8.74,14.5837-16.6116,29.3871c-4.17,7.857-8.2017,15.7134-12.0245,23.64v.0458c-18.442,38.3333-32.6674,78.2079-41.6916,120.4114-.1968.5912-.3128,1.2516-.4751,1.8774v.0464c0,.07-.0345.116-.0345.185-8.7925,41.59-30.316,75.5892-60.91,105.451-16.9594,16.5712-32.1925,34.9383-43.95,55.5416-2.3864,4.1367-4.6105,8.3668-6.8,12.5844-17.8164,34.59-29.9682,72.0664-46.024,107.6758C685.0139,889.392,667.6956,944.03,660.5946,1000H.33V749.4132c2.1777-2.2248,3.0813-3.18,5.12-5.4509,4.93-5.0867,9.7247-10.5423,14.295-15.9448h.0461c43.8746-51.1223,76.3415-111.3294,99.1144-174.5853,1.564-4.2177,3.0468-8.4013,4.4949-12.7,5.2013-15.2845,3.3245-23.8482-11.0514-33.5011-38.8766-26.1421-71.81-57.8354-92.6736-99.2281A210.2532,210.2532,0,0,1,7.987,380.168c-18.7083-55.1008-3.5561-113.493,35.0538-136.9468C95.7837,211.18,188.2257,231.262,222.3759,282.2261q10.3562,15.4877,20.62,30.9634l7.0778.116c-10.3214-28.9237,61.7322-23.4889,20.0755-66.4806,21.7668-10.2437,42.9427-20.175,69.702-32.84-15.2679-2.2248-24.5352-3.5579-38.7143-5.62,14.92-6.7214,25.358-12.2721,36.4555-16.1887,36.3745-12.9319,74.8224-21.4956,109.0886-38.53,48.4449-24.1956,97.1217-29.5495,149.83-22.2837,24.42,3.36,50.5649,7.5441,74.9381,5.945a118.1849,118.1849,0,0,0,24.5356-3.9867c19.496-5.4347,38.6447-11.9242,57.6777-19.0388C789.77,100.8045,825.2986,85.2529,861.21,71.0694l7.495-7.857L856.2052,4.0671,910.7321,30.14,963.1506,0,955.146,59.9448,1000,100.491l-58.9753,10.8117c3.1395,9.5369,3.8,21.0673.8807,35.7379-5.2106,26.3882,12.8362,57.3581,23.4034,86.8639A59.3224,59.3224,0,0,1,968.6377,249.7984Z" style="fill: #fff"/>
</svg>
