<svg xmlns="http://www.w3.org/2000/svg" viewBox="0 0 36.06 36.06"><defs><style>.cls-1{fill:#444;}</style></defs><g id="Layer_2" data-name="Layer 2"><g id="Layer_2-2" data-name="Layer 2"><path class="cls-1" d="M13.21,20.24H9.47A9.51,9.51,0,0,1,9.18,18a9.49,9.49,0,0,1,.29-2.21h3.74A18,18,0,0,0,13.05,18,18,18,0,0,0,13.21,20.24Z"/><path class="cls-1" d="M13.64,22.45a17.31,17.31,0,0,0,1.52,3.93,8.85,8.85,0,0,1-4.78-3.93Z"/><path class="cls-1" d="M15.16,9.67a17.31,17.31,0,0,0-1.52,3.93H10.38A8.85,8.85,0,0,1,15.16,9.67Z"/><path class="cls-1" d="M15.91,22.45h4.23A15.67,15.67,0,0,1,18,26.82,15.92,15.92,0,0,1,15.91,22.45Z"/><path class="cls-1" d="M20.14,13.6H15.91A15.92,15.92,0,0,1,18,9.23,15.67,15.67,0,0,1,20.14,13.6Z"/><path class="cls-1" d="M20.61,15.81A16.07,16.07,0,0,1,20.79,18a16.21,16.21,0,0,1-.18,2.22H15.44A16.21,16.21,0,0,1,15.26,18a16.07,16.07,0,0,1,.18-2.21Z"/><path class="cls-1" d="M22.41,22.45h3.26a8.9,8.9,0,0,1-4.78,3.93A17.31,17.31,0,0,0,22.41,22.45Z"/><path class="cls-1" d="M22.41,13.6a17.31,17.31,0,0,0-1.52-3.93,8.9,8.9,0,0,1,4.78,3.93Z"/><path class="cls-1" d="M22.84,15.81h3.74A9.49,9.49,0,0,1,26.87,18a9.51,9.51,0,0,1-.29,2.22H22.84A18,18,0,0,0,23,18,18,18,0,0,0,22.84,15.81Z"/><path class="cls-1" d="M18,0a18,18,0,1,0,18,18A18,18,0,0,0,18,0Zm0,29.08A11.06,11.06,0,1,1,29.08,18,11.05,11.05,0,0,1,18,29.08Z"/></g></g></svg>