<?xml version="1.0" encoding="utf-8"?>
<!-- Generator: Adobe Illustrator 25.2.0, SVG Export Plug-In . SVG Version: 6.00 Build 0)  -->
<svg version="1.1" id="Layer_1" xmlns="http://www.w3.org/2000/svg" xmlns:xlink="http://www.w3.org/1999/xlink" x="0px" y="0px"
	 viewBox="0 0 1000 1000" style="enable-background:new 0 0 1000 1000;" xml:space="preserve">
<style type="text/css">
	.st0{fill:#FFFFFF;}
	.st1{fill:#46587F;}
	.st2{fill:#FF697C;}
</style>
<g>
	<g>
		<polygon id="fullLogo" class="st0" points="228.1,919.7 269.7,943.9 303.6,950.9 300.1,958.4 340.3,973.9 428.7,977.5 
			792.2,895.6 824.4,880.4 857.3,849.7 851.5,842.2 878.5,826.7 909.8,786.5 891.3,781.4 		"/>
		<path class="st0" d="M973.7,378c-3.5-13.7-7.6-27.2-12.3-40.4c-3.3-9.5-7-18.8-10.9-28c-8.4-19.9-18.2-39.3-29.2-57.9
			C836.3,107.6,679.4,11,500,11C229.9,11,11,229.9,11,500c-0.2,124.5,47.3,244.4,132.8,335c4.6,4.9,9.3,9.7,14.1,14.4
			c26,25.5,54.8,48,85.7,67.1c1.3,0.8,2.6,1.6,3.9,2.4c14.1,8.5,28.5,16.3,43.4,23.3c10.7,5.1,21.6,9.8,32.7,14.1
			c14.4,5.6,29.1,10.5,44.1,14.7c6.2,1.8,12.5,3.4,18.9,4.9c138.1,32.7,283.6,4,398.9-78.7c4-2.9,8-5.8,11.9-8.8
			c12.8-9.8,25.1-20.3,36.9-31.3c8.1-7.6,15.9-15.4,23.5-23.5c11.7-12.5,22.8-25.7,33.1-39.4c2.7-3.5,5.3-7.1,7.8-10.6
			C982,665.9,1009.5,517.6,973.7,378L973.7,378z M737.4,407.7c-17.8,7.3-35,16-51.5,25.9c-1.3,0.8-2.6,1.6-4,2.4V378h-84.4
			l35.8,94.5c-4,3.5-7.9,7.2-11.7,11c-14.2,13.8-26.7,29.2-37,46.1c-0.5,0.9-1.1,1.7-1.6,2.6L525,378l0,0l-58.2,154.3h116
			c-0.2,0.4-0.4,0.8-0.7,1.1c-9.7,16.8-16.7,35-20.6,54c-0.9,4.4-1.6,8.7-2.1,13.1H440.7l-30.1,78.6l9.3,16.9h-96.6l9.3-16.9l0,0v0
			l-80.4-146.8h-35.2v163.8h-68.1V309.5h117.8c9.3,0,18.4,0.4,27.4,1.3c2.2,0.2,4.5,0.5,6.7,0.7c6.7,0.8,13.2,1.9,19.7,3.2
			c6.3,1.3,12.5,2.9,18.6,4.9c9.6,3.2,18.9,7.5,27.5,12.8c2.5,1.6,4.9,3.2,7.3,5c0,0,0,0,0,0c0,0,0,0,0,0c1.2,0.9,2.4,1.8,3.5,2.8
			c4.1,3.4,7.8,7.2,11.2,11.3c1.2,1.5,2.5,3,3.6,4.6c2.4,3.2,4.6,6.6,6.5,10.1c0.2,0.4,0.5,0.9,0.7,1.4c0.7,1.4,1.4,2.8,2.1,4.3
			c0.7,1.5,1.3,3,1.9,4.6c0.4,1,0.8,2.1,1.1,3.2c1.7,5.2,3,10.5,3.9,15.9c0.2,1.3,0.4,2.7,0.6,4c0.4,2.4,0.6,4.9,0.9,7.4
			c0,0.1,0,0.2,0,0.4c0.5,5.2,0.7,10.6,0.7,16c0,5.3-0.2,10.5-0.5,15.7c-0.1,0.9-0.1,1.7-0.2,2.6c-0.2,2.6-0.5,5.1-0.8,7.6
			c-0.2,1.7-0.5,3.3-0.7,5c-1.1,7.2-2.9,14.4-5.2,21.3c-0.5,1.5-1.1,2.9-1.6,4.4c-1.4,3.5-3.1,7-5,10.2c-0.7,1.3-1.5,2.5-2.4,3.8
			c-0.8,1.2-1.7,2.4-2.6,3.6c-0.5,0.6-0.9,1.2-1.4,1.8c-1.4,1.8-2.9,3.5-4.3,5.1c-6.7,7.5-14.7,13.7-23.6,18.3
			c-1.3,0.7-2.6,1.3-4,1.9c-2,0.9-4.1,1.7-6.3,2.5c-4.6,1.6-9.3,2.9-14,3.8c-1.7,0.3-3.4,0.7-5.1,0.9c-0.9,0.1-1.8,0.3-2.7,0.4
			l37.4,68.2l0,0l2-5.2l104.2-271.4c0.4-0.8,0.7-1.6,1.2-2.4c0.4-0.8,0.9-1.5,1.4-2.2c4.5-6.2,11.7-9.8,19.3-9.8H778
			c0.1,0.2,0.2,0.4,0.3,0.6c4.5,8.9,11.6,15.7,19.9,21.3c3.1,2.1,3.5,3.9,2.4,7.2c-0.3,0.9-0.6,1.8-1,2.7
			c-4.6,13.3-11.6,25.6-20.5,36.5h-28.4v23.3C746.4,403.7,742,405.8,737.4,407.7z"/>
		<path id="fullLogo-2" class="st1" d="M811.2,884.4c4.4-1.3,8.8-2.6,13.3-3.9c-133.8,114-317.6,149.5-484.2,93.5
			C499.3,957.2,657.3,928,811.2,884.4z"/>
		<path id="fullLogo-3" class="st1" d="M878.5,826.7c-6.8,7.9-13.8,15.5-21.1,23l0,0c-1.6,0.5-3.1,1-4.7,1.5
			C676.1,907,492.6,940,308.5,957.7c-2.8,0.3-5.6,0.5-8.4,0.7c-10.3-4.5-20.5-9.4-30.4-14.5C475.8,928,681.9,891.4,878.5,826.7z"/>
		<path id="fullLogo-4" class="st1" d="M985,378H880.2v-68.4h82.2c-8.7-21-18.8-41.5-30.2-61.1C845.5,99.8,684.4,0,500,0
			C223.9,0,0,223.9,0,500c-0.2,126.4,47.7,248.2,134,340.6c4.3,4.6,8.7,9.2,13.2,13.7c12.7,12.6,26.1,24.6,40.1,35.8h0
			c0.2,0,0.5,0.1,0.7,0.1h0c2.2,1.8,4.4,3.6,6.6,5.3c1,0.8,2,1.6,3,2.4c1,0.8,2,1.6,3.1,2.3c0.1,0,0.1,0.1,0.2,0.1
			c0.2,0.1,0.4,0.3,0.5,0.4c0.1,0.1,0.2,0.1,0.3,0.2c-0.1,0-0.2,0-0.4,0c8.7,6.5,17.7,12.8,26.8,18.7c6.5-0.2,12.9-0.5,19.4-0.8
			c115.1-5.6,229.3-23.1,342.4-44.8c101.6-20.6,203.9-42.8,300.9-80.1c6.4-2.4,12.7-5,19-7.5C992.8,667.6,1020.2,518.6,985,378
			L985,378z M249.7,204.4L266,213l16.3-8.6l-3.1,18.2l13.2,12.9l-18.3,2.6l-8.2,16.6l-8.2-16.6l-18.3-2.6l13.2-12.9L249.7,204.4z
			 M266.6,309.5c9.3,0,18.4,0.4,27.4,1.3c2.2,0.2,4.5,0.5,6.7,0.7c6.7,0.8,13.2,1.9,19.7,3.2c6.3,1.3,12.5,2.9,18.6,4.9
			c9.6,3.2,18.9,7.5,27.5,12.8c2.5,1.6,4.9,3.2,7.3,5c0,0,0,0,0,0c0,0,0,0,0,0c1.2,0.9,2.4,1.8,3.5,2.8c4.1,3.4,7.8,7.2,11.2,11.3
			c1.2,1.5,2.5,3,3.6,4.6c2.4,3.2,4.6,6.6,6.5,10.1c0.2,0.4,0.5,0.9,0.7,1.4c0.7,1.4,1.4,2.8,2.1,4.3c0.7,1.5,1.3,3,1.9,4.6
			c0.4,1,0.8,2.1,1.1,3.2c1.7,5.2,3,10.5,3.9,15.9c0.2,1.3,0.4,2.7,0.6,4c0.4,2.4,0.6,4.9,0.9,7.4c0,0.1,0,0.2,0,0.4
			c0.5,5.2,0.7,10.6,0.7,16c0,5.3-0.2,10.5-0.5,15.7c-0.1,0.9-0.1,1.7-0.2,2.6c-0.2,2.6-0.5,5.1-0.8,7.6c-0.2,1.7-0.5,3.3-0.7,5
			c-1.1,7.2-2.9,14.4-5.2,21.3c-0.5,1.5-1.1,2.9-1.6,4.4c-1.4,3.5-3.1,7-5,10.2c-0.7,1.3-1.5,2.5-2.4,3.8c-0.8,1.2-1.7,2.4-2.6,3.6
			c-0.5,0.6-0.9,1.2-1.4,1.8c-1.4,1.8-2.9,3.5-4.3,5.1c-6.7,7.5-14.7,13.7-23.6,18.3c-1.3,0.7-2.6,1.3-4,1.9c-2,0.9-4.1,1.7-6.3,2.5
			c-4.6,1.6-9.3,2.9-14,3.8c-1.7,0.3-3.4,0.7-5.1,0.9c-0.9,0.1-1.8,0.3-2.7,0.4l37.4,68.2l0,0l2-5.2l104.2-271.4
			c0.4-0.8,0.7-1.6,1.2-2.4c0.4-0.8,0.9-1.5,1.4-2.2c4.5-6.2,11.7-9.8,19.3-9.8H778c0.1,0.2,0.2,0.4,0.3,0.6
			c4.5,8.9,11.6,15.7,19.9,21.3c3.1,2.1,3.5,3.9,2.4,7.2c-0.3,0.9-0.6,1.8-1,2.7c-4.6,13.3-11.6,25.6-20.5,36.5h-28.4v23.3
			c-4.3,2.4-8.8,4.6-13.3,6.5c-17.8,7.3-35,16-51.5,25.9c-1.3,0.8-2.6,1.6-4,2.4V378h-84.4l35.8,94.5c-4,3.5-7.9,7.2-11.7,11
			c-14.2,13.8-26.7,29.2-37,46.1c-0.5,0.9-1.1,1.7-1.6,2.6L525,378l0,0l-58.2,154.3h116c-0.2,0.4-0.4,0.8-0.7,1.1
			c-9.7,16.8-16.7,35-20.6,54c-0.9,4.4-1.6,8.7-2.1,13.1H440.7l-30.1,78.6l9.3,16.9h-96.6l9.3-16.9l0,0v0l-80.4-146.8h-35.2v163.8
			h-68.1V309.5H266.6z M311.9,134.6l16.4,8.6l16.3-8.6l-3.1,18.2l13.2,12.9l-18.3,2.6l-8.2,16.6l-8.2-16.6l-18.3-2.6l13.2-12.9
			L311.9,134.6z M395.6,85.4l16.3,8.6l16.3-8.6l-3.1,18.2l13.2,12.9l-18.3,2.7l-8.2,16.5l-8.2-16.6l-18.3-2.7l13.2-12.9L395.6,85.4z
			 M459.6,204.4L476,213l16.3-8.6l-3.1,18.2l13.2,12.9l-18.3,2.6l-8.2,16.6l-8.2-16.6l-18.3-2.6l13.2-12.9L459.6,204.4z
			 M513.2,134.6l16.3,8.6l16.3-8.6l-3.1,18.2l13.2,12.9l-18.3,2.6l-8.2,16.6l-8.2-16.6l-18.3-2.6l13.2-12.9L513.2,134.6z
			 M588.1,85.4l16.3,8.6l16.3-8.6l-3.1,18.2l13.2,12.9l-18.3,2.7l-8.2,16.5l-8.2-16.6l-18.3-2.7l13.2-12.9L588.1,85.4z M666.5,127.3
			l16.3,8.6l16.3-8.6l-3.1,18.2l13.2,12.9L691,161l-8.2,16.6l-8.2-16.6l-18.3-2.6l13.2-12.9L666.5,127.3z M916.6,268.8l-3.9,4.5
			c-4.3-7.8-8.8-15.4-13.5-22.9C816,117.5,668.3,29.1,500,29.1C240,29.1,29.2,239.9,29.2,500C29,622,76.3,739.2,161.1,826.8
			c1.7,1.8,3.4,3.6,5.2,5.3l-10.3,6c-2.1-2.1-4.1-4.2-6.1-6.3C64.8,742.4,17.4,623.5,17.6,500c0-266.4,216-482.4,482.4-482.4
			c175.8,0,329.5,94,413.9,234.4c3.2,5.2,6.2,10.6,9.2,15.9L916.6,268.8z"/>
		<path id="fullLogo-5" class="st2" d="M201.7,901c-0.1,0-0.2,0-0.4,0c-4.8-3.5-9.5-7.2-14.1-10.9c0.2,0,0.5,0.1,0.7,0.1h0
			c2.2,1.8,4.4,3.6,6.6,5.3c1,0.8,2,1.6,3,2.4c1,0.8,2,1.6,3.1,2.3c0.1,0,0.1,0.1,0.2,0.1c0.2,0.1,0.3,0.3,0.5,0.4
			C201.5,900.9,201.6,901,201.7,901z"/>
		<path class="st2" d="M957,603.3c-1.4,1.5-5.2,1.4-6.2,1.2c-2.8-0.5-13.1-1.8-15.2-11.3c-0.3-0.9-0.9-1.6-1.8-2
			c-6.5-2.5-13-6.8-19.6-7c-17-0.4-34.2,1.1-51.2,2.1c-1.4,0.1-3.5,2.3-4,3.9c-1.6,5.4-2.4,11.1-4,16.5c-9.7,31.3-20.6,62-36,91.1
			c-8,15.2-14.7,31.2-21.2,47.2c-2.9,7.2,0.9,10.6,8.5,9.8c15-1.6,30.1-3.6,45.1-3.9c11.9-0.3,23.8,1.4,35.7,2.6
			c4,0.4,6.8,2.5,8.9,6.1c1.4,2.4-0.1,5-2.5,6.3c-6,3.2-6,3.2-16.3,3.8c-31.7,1.9-63.3,4.2-94.9,6.3c-4.4,0.3-8.8,1.1-14.2,1.9
			c3.9,1.9,6.9,3.4,9.8,4.8c1.3,0.6,2.5,1.5,3.6,2.6c1.2,1.3,1.7,2.4,1.5,3.3c-0.7,3-8.7,4.1-23.8,3.5c-50.1-7.3-77.7-6.5-93.9-5
			c-11.2,1-22.6,1.4-33.7,0c-10.2-1.3-26.7-4.1-29.3-7.6c0,0.2-16.9-12.2-52-6.1c-21.8,3.6-295.4,39.3-387.5,74.1
			c-1.7,0.7-3.4,1.3-5,2c-4,1.6-7.6,3.3-10.7,4.9c-0.6,0.3-1.1,0.6-1.6,0.8h0c-23,12.6-13.8,24.8,41.7,35h0
			c4.6,3.7,9.3,7.4,14.1,10.9c-40.2-4.6-85.3-15.4-86.2-37.1c-0.3-6.5,4.6-13.9,17.4-22.4c0.5-0.3,1-0.6,1.5-0.9
			c2.9-1.8,6.1-3.7,9.8-5.6c1.5-0.8,3-1.6,4.6-2.3c0.5-0.2,1-0.5,1.5-0.8c3.4-1.7,7.2-3.3,11.2-5h0c52.9-22.6,159-50.7,355-85
			c66.7-11.7,79.5-6.4,80.1-6.2c-0.1-0.2-0.2-0.3-0.4-0.5c-2.7-6.1-4.9-11.4-7.3-16.5c-9-18.4-20.1-35.8-24.7-56.3
			c-4.5-20-6.6-40-4.5-60c0.1-0.6,0.1-1.1,0.2-1.7c0.5-4.4,1.2-8.7,2.1-13.1c3.9-19,10.9-37.2,20.6-54c0.2-0.4,0.4-0.8,0.7-1.1
			c0-0.1,0.1-0.1,0.1-0.2c0.5-0.9,1-1.8,1.6-2.6c10.4-16.8,22.8-32.3,37-46.1c3.8-3.8,7.7-7.4,11.7-11c0.8-0.7,1.6-1.4,2.4-2.1
			c14.4-12.7,29.9-24.1,46.3-34.2c1.3-0.8,2.6-1.6,4-2.4c16.5-9.9,33.7-18.6,51.5-25.9c4.6-1.9,9-4.1,13.3-6.5
			c1.5-0.8,3-1.7,4.4-2.6c3.7-2.3,7.2-4.8,10.5-7.5h0c3.1-2.5,6-5.2,8.8-8c0.3-0.3,3-3.2,4-4.3c0,0,0,0,0.1-0.1
			c0.1-0.1,0.2-0.2,0.3-0.3h151.5c-3.6,7-0.3,14.4-2.9,21.7c-0.2,0.4-0.3,0.8-0.5,1.2c-10.1,22.2-14.5,44.9-8.6,69.2
			c1.6,6.8,1,14.3,0.4,21.3c-0.8,8.6-3,17-4,25.6c-1.8,14.8,7.3,30.9,20.8,37.4c11.4,5.6,21.1,14.1,28.2,24.7c1.1,1.5,1.7,3.3,2,5.2
			C966.8,591.9,962,597.8,957,603.3z"/>
		<path id="fullLogo-6" class="st0" d="M985,377.9H869.2v-68.4h93.2C971.6,331.8,979.2,354.6,985,377.9z"/>
		<path id="type" class="st0" d="M778,309.5c0.1,0.2,0.2,0.4,0.3,0.6c4.5,8.9,11.6,15.7,19.9,21.3c3.1,2.1,3.5,3.9,2.4,7.2
			c-0.3,0.9-0.6,1.8-1,2.7c-4.6,13.3-11.6,25.6-20.5,36.5h90.1v-68.4H778z"/>
		<path class="st0" d="M798.2,331.5c-8.4-5.6-15.4-12.4-19.9-21.3c-0.1-0.2-0.2-0.4-0.3-0.6H495.7c-7.6,0-14.8,3.6-19.3,9.8
			c-0.5,0.7-1,1.4-1.4,2.2c-0.4,0.8-0.8,1.6-1.2,2.4L369.5,595.3l-2,5.2l0,0l-37.4-68.2c0.9-0.1,1.8-0.3,2.7-0.4
			c1.8-0.3,3.5-0.6,5.1-0.9c4.8-0.9,9.5-2.2,14-3.8c2.2-0.8,4.3-1.6,6.3-2.5c1.3-0.6,2.7-1.2,4-1.9c8.9-4.6,16.9-10.8,23.6-18.3
			c1.5-1.6,2.9-3.3,4.3-5.1c0.5-0.6,0.9-1.2,1.4-1.8c0.9-1.2,1.8-2.4,2.6-3.6c0.8-1.2,1.6-2.5,2.4-3.8c1.9-3.3,3.6-6.7,5-10.2
			c0.6-1.4,1.1-2.9,1.7-4.4c2.4-6.9,4.1-14,5.2-21.3c0.3-1.7,0.5-3.3,0.7-5c0.3-2.5,0.6-5.1,0.8-7.7c0.1-0.8,0.1-1.7,0.2-2.6
			c0.4-5.2,0.5-10.4,0.5-15.7c0-5.4-0.2-10.8-0.7-16c0-0.1,0-0.2,0-0.4c-0.2-2.5-0.5-5-0.9-7.4c-0.2-1.4-0.4-2.7-0.6-4
			c-0.9-5.4-2.2-10.7-3.9-15.9c-0.4-1.1-0.7-2.2-1.1-3.2c-0.6-1.6-1.2-3.1-1.9-4.6c-0.6-1.5-1.3-2.9-2.1-4.3
			c-0.2-0.4-0.5-0.9-0.7-1.3c-2-3.5-4.1-6.9-6.5-10.1c-1.2-1.6-2.4-3.1-3.6-4.6c-3.4-4.1-7.2-7.9-11.2-11.3c-1.2-1-2.3-1.9-3.5-2.8
			c0,0,0,0,0,0c-2.3-1.8-4.8-3.4-7.3-5c-8.6-5.3-17.9-9.6-27.5-12.8c-6.1-2-12.3-3.7-18.6-4.9c-6.5-1.3-13.1-2.3-19.7-3.2
			c-2.2-0.3-4.5-0.5-6.7-0.7c-9-0.9-18.1-1.3-27.4-1.3H148.8v386.6h68.1V532.3h35.2l80.4,146.8v0l0,0l-9.3,16.9h96.6l-9.3-16.9
			l30.1-78.6h168l36.1,95.6H727c7.5,0,14.6-3.5,19-9.5c0.4-0.6,0.9-1.2,1.3-1.9c0,0,0,0,0,0c0.4-0.6,0.8-1.3,1.1-2
			c0.3-0.7,0.6-1.4,0.9-2.1c1-2.6,1.4-5.4,1.4-8.2V378h28.4c8.9-10.9,15.8-23.2,20.5-36.5c0.3-0.9,0.7-1.8,1-2.7
			C801.7,335.4,801.3,333.6,798.2,331.5z M466.9,532.3L525,378l0,0L583,532.1l0.1,0.2H466.9z M682,601L682,601l-48.7-128.6
			L597.5,378H682V601z"/>
		<path class="st2" d="M982.8,284.2c0.1,1.6-0.1,3.2-0.7,4.8c-2,5.1-3.7,10.3-6.4,14.9c-1.3,2.1-2.5,4.2-3.6,6.3
			c-0.9,1.7-1.8,3.4-2.6,5.1v0c-0.9,1.9-1.8,3.8-2.6,5.7c-2.3,5.4-4.1,11-5.6,16.6c-0.3,1.2-0.6,2.4-0.8,3.6c0,0.1-0.1,0.3-0.1,0.4
			v0c0,0,0,0,0,0c-1.9,8.9-6.5,16.2-13.1,22.7c-3.7,3.5-6.9,7.5-9.4,11.9c-0.3,0.6-0.7,1.2-1,1.8c-0.2,0.3-0.3,0.6-0.5,1
			c-3.5,6.8-6,14.1-9,21.1c-0.3,0.7-0.6,1.3-0.9,2c-5.2,11.2-8.8,23.1-10.5,35.4H774.1v-53.9c0.5-0.5,0.7-0.7,1.1-1.2
			c1.1-1.1,2.1-2.3,3.1-3.4h0c0.1-0.1,0.1-0.1,0.2-0.2c0,0,0,0,0.1-0.1c0.2-0.2,0.4-0.5,0.6-0.8c8.9-10.9,15.8-23.2,20.5-36.5
			c0.3-0.9,0.7-1.8,1-2.7c1.1-3.3,0.7-5.1-2.4-7.2c-8.4-5.6-15.4-12.4-19.9-21.3c-0.1-0.2-0.2-0.4-0.3-0.6c-0.8-1.7-1.6-3.5-2.2-5.4
			c-4-11.9-0.8-24.4,7.5-29.4c11.3-6.9,31.2-2.6,38.5,8.4c1.5,2.2,3,4.4,4.4,6.7l1.5,0c-2.2-6.2,13.3-5,4.3-14.3
			c4.7-2.2,9.2-4.3,15-7.1c-3.3-0.5-5.3-0.8-8.3-1.2c3.2-1.5,5.5-2.6,7.8-3.5c7.8-2.8,16.1-4.6,23.5-8.3c9-4.5,19.2-6.3,29.2-5.1
			c1,0.1,2,0.2,3,0.4c3.8,0.5,7.7,1.1,11.6,1.3c1.5,0.1,3,0.1,4.5,0c1-0.1,2-0.2,2.9-0.3c0.8-0.1,1.6-0.3,2.3-0.5
			c2.9-0.8,5.7-1.7,8.5-2.7c1.3-0.5,2.6-0.9,3.9-1.4c7.8-2.9,15.4-6.2,23.1-9.3l1.6-1.7l-2.7-12.7l11.7,5.6l11.3-6.5l-1.7,12.9
			l9.6,8.7l-12.7,2.3c0.7,2.5,0.8,5.1,0.2,7.7c-1.1,5.7,2.8,12.3,5,18.7c0.4,1.1,0.6,2.2,0.7,3.4L982.8,284.2z"/>
	</g>
	<path class="st1" d="M216.9,378c91.3,0,121.7,0,121.8,43.1s-30.4,43.1-121.8,43.1V378z"/>
</g>
</svg>
