<?xml version="1.0" standalone="no"?>
<!DOCTYPE svg PUBLIC "-//W3C//DTD SVG 20010904//EN"
 "http://www.w3.org/TR/2001/REC-SVG-20010904/DTD/svg10.dtd">
<svg version="1.0" xmlns="http://www.w3.org/2000/svg"
 width="700.000000pt" height="700.000000pt" viewBox="0 0 700.000000 700.000000"
 preserveAspectRatio="xMidYMid meet">
<metadata>
Created by potrace 1.14, written by Peter Selinger 2001-2017
</metadata>
<g transform="translate(0.000000,700.000000) scale(0.100000,-0.100000)"
fill="#000000" stroke="none">
<path d="M6709 6982 c-13 -9 -44 -28 -69 -41 -25 -13 -52 -29 -60 -36 -8 -7
-19 -14 -25 -16 -5 -2 -49 -26 -97 -52 -85 -47 -89 -48 -115 -33 -28 15 -343
166 -347 166 -1 0 17 -93 41 -207 l44 -207 -28 -27 c-17 -17 -84 -51 -168 -84
-77 -32 -153 -63 -170 -70 -164 -74 -610 -239 -781 -290 -210 -61 -331 -63
-709 -11 -139 19 -205 23 -365 21 -107 -1 -208 -5 -225 -9 -16 -3 -64 -13
-105 -22 -152 -32 -243 -64 -420 -147 -121 -57 -246 -103 -435 -162 -231 -71
-352 -114 -453 -161 -52 -24 -99 -44 -105 -44 -31 0 9 -11 74 -20 41 -6 92
-13 114 -16 22 -4 46 -7 53 -7 14 0 17 -17 2 -17 -6 0 -83 -35 -173 -78 -89
-43 -192 -91 -228 -107 l-66 -30 40 -52 c47 -63 58 -117 32 -161 -10 -16 -50
-50 -89 -76 -115 -75 -141 -105 -131 -154 5 -29 -29 -35 -52 -8 -11 11 -54 73
-96 136 -91 136 -95 140 -172 206 -53 45 -173 124 -189 124 -3 0 -30 11 -60
25 -117 53 -293 89 -441 89 -375 0 -618 -174 -706 -504 -18 -66 -23 -113 -23
-210 -1 -180 15 -266 75 -419 121 -303 337 -562 664 -793 118 -83 128 -96 131
-171 2 -55 -5 -81 -66 -237 -37 -96 -76 -195 -87 -220 -98 -219 -203 -413
-317 -590 -94 -145 -290 -393 -387 -489 -15 -14 -16 -98 -15 -891 l1 -875
2304 -3 c1268 -1 2308 1 2312 5 4 5 10 31 13 58 21 174 94 465 177 700 23 66
86 224 140 350 108 254 121 285 125 300 1 6 30 78 64 160 164 398 270 568 494
798 115 117 203 225 263 322 92 149 128 243 188 489 57 235 143 495 217 656
49 107 161 330 192 385 102 177 122 216 164 315 55 127 110 269 127 326 13 45
14 172 0 324 -10 118 -17 143 -90 330 -105 266 -119 330 -100 460 12 80 13
150 3 194 -5 21 -6 41 -4 44 3 3 38 11 78 18 40 7 82 15 93 17 11 3 66 13 123
23 56 9 102 20 102 24 0 6 -151 145 -269 248 -34 29 -34 29 -26 93 4 35 9 73
10 84 6 33 15 98 20 140 2 22 7 61 10 88 3 26 3 47 1 47 -2 0 -14 -8 -27 -18z"/>
</g>
</svg>
