<?xml version="1.0" standalone="no"?>
<!DOCTYPE svg PUBLIC "-//W3C//DTD SVG 20010904//EN"
 "http://www.w3.org/TR/2001/REC-SVG-20010904/DTD/svg10.dtd">
<svg version="1.0" xmlns="http://www.w3.org/2000/svg"
 width="700.000000pt" height="700.000000pt" viewBox="0 0 700.000000 700.000000"
 preserveAspectRatio="xMidYMid meet">
<metadata>
Created by potrace 1.14, written by Peter Selinger 2001-2017
</metadata>
<g transform="translate(0.000000,700.000000) scale(0.100000,-0.100000)"
fill="#000000" stroke="none">
<path d="M10 3500 l0 -3500 3495 0 3495 0 0 3500 0 3500 -3495 0 -3495 0 0
-3500z m5979 2558 c-10 -73 -18 -144 -18 -158 -1 -19 25 -47 113 -125 63 -55
113 -104 112 -109 -1 -6 -47 -18 -102 -28 -54 -10 -122 -23 -150 -29 l-51 -10
7 -42 c5 -22 3 -83 -3 -133 -13 -112 -1 -167 73 -351 57 -140 69 -206 72 -388
l3 -120 -53 -135 c-52 -132 -86 -200 -211 -425 -121 -219 -205 -435 -281 -727
-27 -103 -63 -221 -80 -262 -48 -114 -136 -238 -272 -382 -198 -210 -252 -301
-417 -704 -43 -107 -94 -226 -111 -265 -114 -250 -178 -469 -246 -832 l-4 -23
-1780 0 -1780 0 0 676 0 676 66 72 c231 248 460 646 586 1014 47 139 41 155
-99 256 -207 150 -354 317 -449 511 -72 149 -98 250 -98 390 0 291 134 484
385 551 152 40 383 15 544 -60 142 -65 218 -134 318 -286 59 -90 103 -129 90
-81 -8 30 19 65 86 110 109 74 119 105 61 189 -17 23 -30 44 -30 45 0 2 81 41
181 88 200 93 198 89 52 105 -35 3 -63 9 -63 13 0 14 228 103 425 166 116 37
269 93 341 125 262 116 400 145 649 137 88 -3 205 -14 260 -23 62 -11 155 -17
245 -17 139 0 150 1 263 37 243 75 816 302 851 336 19 19 19 21 -14 175 -18
85 -31 158 -28 160 3 3 66 -24 142 -60 75 -36 142 -65 149 -65 7 0 66 32 132
70 66 38 127 70 136 70 14 0 14 -12 -2 -132z"/>
</g>
</svg>
