<?xml version="1.0" encoding="UTF-8"?>
<svg id="Layer_2" data-name="Layer 2" xmlns="http://www.w3.org/2000/svg" viewBox="0 0 36 36">
  <defs>
    <style>
      .cls-1 {
        fill: #000;
      }
    </style>
  </defs>
  <g id="Layer_1-2" data-name="Layer 1">
    <g id="Layer_2-2" data-name="Layer 2-2">
      <path class="cls-1" d="M18,0C8.06,0,0,8.06,0,18s8.06,18,18,18,18-8.06,18-18S27.94,0,18,0Zm7.5,22.78c0,.4,0,.76-.09,1.16-.08,.39-.22,.75-.45,1.08-.23,.32-.52,.59-.86,.79-.35,.21-.71,.32-1.09,.4-.73,.15-1.22,.18-1.69,.09-.45-.1-.83-.3-1.13-.58-.45-.41-.73-.97-.79-1.56-.08-.68,.15-1.41,.66-1.95,.26-.27,.59-.49,1.02-.65,.46-.18,.96-.29,1.73-.44,.2-.04,.41-.08,.61-.12,.27-.06,.5-.13,.68-.35,.19-.23,.19-.51,.19-.78v-6.92c0-.53-.24-.67-.74-.58-.36,.07-8.12,1.64-8.12,1.64-.44,.11-.6,.25-.6,.79v10.14c0,.4-.02,.76-.1,1.15-.08,.39-.23,.76-.46,1.08-.22,.33-.52,.6-.86,.8-.34,.2-.7,.32-1.09,.4-.72,.15-1.22,.18-1.68,.09-.45-.09-.83-.31-1.14-.59-.45-.41-.71-.97-.77-1.55-.07-.69,.14-1.42,.65-1.95,.26-.28,.58-.49,1.02-.66,.45-.18,.96-.28,1.73-.44,.2-.04,.4-.08,.61-.12,.26-.05,.49-.12,.68-.35,.18-.22,.21-.49,.21-.76V10.35c0-.16,.01-.26,.02-.31,.03-.25,.13-.46,.31-.61,.15-.12,.34-.21,.58-.26h0l9.33-1.89c.08-.01,.76-.13,.83-.14,.51-.04,.79,.29,.79,.82v14.82Z"/>
    </g>
  </g>
</svg>