<?xml version="1.0" encoding="UTF-8"?>
<svg id="Layer_2" data-name="Layer 2" xmlns="http://www.w3.org/2000/svg" viewBox="0 0 36 36">
  <defs>
    <style>
      .cls-1 {
        fill: #444;
      }
    </style>
  </defs>
  <g id="Layer_1-2" data-name="Layer 1">
    <g id="Layer_2-2" data-name="Layer 2-2">
      <path class="cls-1" d="M17.1,21.38l1.32,.84c-.14,.15-.38,.31-.73,.48-.35,.16-.77,.3-1.26,.42-.49,.11-1.02,.17-1.59,.17-.5,0-.98-.05-1.46-.14-.47-.1-.9-.25-1.29-.46-.38-.21-.69-.48-.91-.82-.23-.34-.35-.75-.35-1.23s.12-.9,.35-1.24c.22-.34,.53-.61,.91-.81,.39-.21,.82-.36,1.29-.45,.48-.09,.96-.14,1.46-.14,.57,0,1.1,.05,1.58,.15,.48,.1,.89,.24,1.24,.4,.34,.16,.6,.34,.75,.52l-1.29,.85c-.19-.2-.48-.37-.86-.49-.39-.12-.86-.19-1.4-.19-.27,0-.55,.03-.82,.07-.28,.04-.53,.11-.76,.21-.23,.1-.41,.25-.55,.43s-.21,.41-.21,.69,.07,.5,.21,.69c.14,.18,.32,.32,.55,.43,.23,.1,.48,.18,.76,.22,.27,.04,.55,.07,.82,.07,.53,0,1-.07,1.4-.21,.39-.13,.67-.29,.84-.46Z"/>
      <path class="cls-1" d="M18,0C8.06,0,0,8.06,0,18s8.06,18,18,18,18-8.06,18-18S27.94,0,18,0Zm7.86,21.65c-.38,.25-.93,.38-1.63,.38s-1.26-.13-1.65-.38-.59-.59-.59-1.01,.2-.76,.59-1.01c.39-.24,.94-.37,1.65-.37s1.24,.13,1.63,.37c.39,.25,.59,.58,.59,1.01s-.2,.75-.59,1.01Zm2.52-2.11c-.09,.18-.19,.37-.3,.55-.08-.35-.24-.66-.47-.92-.12-.13-.24-.24-.38-.35-.29-.22-.63-.4-1.03-.53-.59-.19-1.25-.29-1.97-.29s-1.39,.1-1.98,.29c-.6,.19-1.07,.49-1.41,.88-.35,.39-.53,.88-.53,1.47s.18,1.08,.53,1.47c.34,.39,.81,.69,1.41,.88,.59,.2,1.25,.3,1.98,.3,.17,0,.34-.01,.5-.02-1.38,.85-2.97,1.51-4.77,1.99-2,.54-3.89,.75-5.66,.65-1.77-.11-3.27-.57-4.52-1.39-1.25-.81-2.09-2.03-2.52-3.65-.44-1.63-.32-3.11,.35-4.44,.67-1.32,1.75-2.47,3.23-3.44,1.49-.97,3.23-1.72,5.23-2.25,1.99-.54,3.86-.75,5.63-.65,1.18,.07,2.25,.3,3.21,.69,.46,.19,.9,.42,1.31,.68,1.25,.81,2.09,2.03,2.53,3.65,.43,1.62,.31,3.1-.37,4.43Z"/>
    </g>
  </g>
</svg>