<?xml version="1.0" encoding="UTF-8"?>
<svg id="Layer_2" data-name="Layer 2" xmlns="http://www.w3.org/2000/svg" viewBox="0 0 36 36">
  <g id="Layer_1-2" data-name="Layer 1">
    <g>
      <path d="M22.11,16.47c-1.24,0-2.21,1.1-2.21,2.45s.99,2.45,2.21,2.45,2.19-1.1,2.21-2.45-.96-2.45-2.21-2.45Z"/>
      <path d="M13.96,16.47c-1.24,0-2.21,1.1-2.21,2.45s1,2.45,2.21,2.45,2.19-1.1,2.21-2.45c.02-1.35-.97-2.45-2.21-2.45Z"/>
      <path d="M18,0C8.06,0,0,8.06,0,18s8.06,18,18,18,18-8.06,18-18S27.94,0,18,0Zm12.19,24.18c-1.87,1.39-3.97,2.44-6.2,3.11-.5-.67-.95-1.39-1.33-2.14,.73-.27,1.43-.6,2.1-1-.18-.12-.35-.25-.52-.39-3.93,1.85-8.48,1.85-12.4,0-.17,.13-.34,.26-.52,.39,.67,.39,1.37,.73,2.1,1-.38,.75-.83,1.46-1.33,2.14-2.24-.68-4.34-1.73-6.21-3.12-.43-4.55,.44-9.17,3.63-13.9,1.62-.74,3.32-1.27,5.07-1.56,.24,.42,.46,.86,.65,1.31,1.86-.28,3.75-.28,5.61,0,.2-.45,.41-.89,.65-1.31h.01c1.74,.3,3.44,.82,5.05,1.56,2.77,4.05,4.15,8.63,3.64,13.91Z"/>
    </g>
  </g>
</svg>