<?xml version="1.0" encoding="UTF-8"?>
<svg id="Layer_2" data-name="Layer 2" xmlns="http://www.w3.org/2000/svg" viewBox="0 0 36 36">
  <g id="Layer_1-2" data-name="Layer 1">
    <g>
      <polygon points="24.97 11.51 11.01 11.51 17.99 17.5 24.97 11.51"/>
      <path d="M18.76,19.63c-.44,.38-1.08,.38-1.52,0l-8.6-7.36c-.05,.12-.07,.25-.07,.38v10.7c0,.13,.02,.26,.07,.37l4.68-4.7,1.5,1.29-4.17,4.18h14.7l-4.18-4.18,1.51-1.29,4.69,4.69c.04-.11,.06-.23,.06-.36V12.65c0-.14-.03-.27-.07-.39l-8.6,7.37Z"/>
      <path d="M18,0C8.06,0,0,8.06,0,18s8.06,18,18,18,18-8.06,18-18S27.94,0,18,0Zm11,24.86c0,.63-.53,1.14-1.18,1.14H8.18c-.65,0-1.18-.51-1.18-1.14V11.14c0-.63,.53-1.14,1.18-1.14H27.82c.65,0,1.18,.51,1.18,1.14v13.72Z"/>
    </g>
  </g>
</svg>