<?xml version="1.0" encoding="UTF-8"?>
<svg id="Layer_2" data-name="Layer 2" xmlns="http://www.w3.org/2000/svg" viewBox="0 0 36 36">
  <defs>
    <style>
      .cls-1 {
        fill: #000;
      }
    </style>
  </defs>
  <g id="Layer_1-2" data-name="Layer 1">
    <g>
      <path class="cls-1" d="M18,0C8.06,0,0,8.06,0,18s8.06,18,18,18,18-8.06,18-18S27.94,0,18,0Zm1.22,29.04h-1.87c.05-.16,.14-.26,.13-.58-.02-1.64-1.76-2.53-4.19-4.27-.26-.03-.42-.03-.73-.03-.29,0-2.02,.06-3.36,.51-.46,.17-1.52,.57-2.18,1.47v-1.85c1.45-1.16,3.96-.95,5.19-1.03-.45-.58-.96-1.19-.96-2.18,0-.55,.16-.87,.32-1.25-.35,.03-.7,.06-1.02,.06-1.45,0-2.64-.55-3.52-1.28v-7.83c.08-.08,.17-.16,.26-.24,1.82-1.51,3.83-1.76,5.5-1.79h6.76l-1.8,1.45h-1.96c.79,.68,1.96,1.9,1.96,4.07,0,2.38-1.25,3.5-2.6,4.56-.42,.42-.9,.87-.9,1.58s.48,1.09,.83,1.38l1.15,.9c1.41,1.19,3.25,2.57,3.25,4.78,0,.59-.06,1.13-.26,1.58Zm9.84-14.53h-4.07v4.09h-1.74v-4.09h-4.06v-1.7h4.06v-4.06h1.74v4.06h4.07v1.7Z"/>
      <path class="cls-1" d="M15.13,15.74c0-2.31-1.34-5.91-4-5.91-.83,0-1.73,.42-2.24,1.06-.54,.67-.63,1.54-.63,2.38,0,2.15,1.13,5.33,3.88,5.33,.8,0,1.62-.2,2.15-.8,.6-.69,.84-1.59,.84-2.06Z"/>
    </g>
  </g>
</svg>