<?xml version="1.0" encoding="UTF-8"?>
<svg id="Layer_2" data-name="Layer 2" xmlns="http://www.w3.org/2000/svg" viewBox="0 0 36 36">
  <defs>
    <style>
      .cls-1 {
        fill: #000;
      }
    </style>
  </defs>
  <g id="Layer_1-2" data-name="Layer 1">
    <g>
      <path class="cls-1" d="M14.7,18.24c-1.06-.25-3.36-.84-3.83,.63-.5,1.64,.69,2.81,2.12,3.37,1.43,.57,2.7,.39,3.49-1.01l.04-.06c.07-.13,.06-.11,.03-.08,.8-1.6-.34-2.49-1.84-2.86Z"/>
      <path class="cls-1" d="M22.8,17.97c-1.18,.11-3.53,.4-3.58,2v.1c.05,1.35,1.25,2.66,2.6,2.52,1.47-.16,2.97-.94,3.33-2.43,.43-1.8-.79-2.34-2.35-2.18Z"/>
      <path class="cls-1" d="M18,0C8.06,0,0,8.06,0,18s8.06,18,18,18,18-8.06,18-18S27.94,0,18,0Zm9.91,11.28c0,.52-.04,1.08-.04,1.71-.17,4.3-1,8.55-2.47,12.59-.04,.11-.1,.2-.19,.28-2.01,1.75-5.1,3.19-7.2,3.19s-5.21-1.44-7.22-3.19c-.09-.07-.15-.17-.19-.28-1.47-4.04-2.31-8.29-2.48-12.59-.04-.63-.04-1.25-.04-1.71v-1.54c.02-.17,.1-.32,.23-.43,.4-.4,.83-.78,1.27-1.13,.15-.12,.35-.16,.54-.13,2.61,.44,5.24,.69,7.88,.74,2.64-.04,5.27-.27,7.87-.7,.19-.03,.38,.01,.54,.13,.44,.34,.86,.71,1.26,1.1,.13,.11,.21,.27,.23,.43v1.54Z"/>
    </g>
  </g>
</svg>