<?xml version="1.0" encoding="UTF-8"?>
<svg id="Layer_2" data-name="Layer 2" xmlns="http://www.w3.org/2000/svg" viewBox="0 0 36 36">
  <defs>
    <style>
      .cls-1 {
        fill: #000;
      }
    </style>
  </defs>
  <g id="Layer_1-2" data-name="Layer 1">
    <g>
      <path class="cls-1" d="M18.04,14.33c-2.03,0-3.67,1.64-3.67,3.67s1.64,3.67,3.67,3.67,3.67-1.64,3.67-3.67-1.64-3.67-3.67-3.67Z"/>
      <path class="cls-1" d="M26.61,11.51c-.2-.51-.44-.88-.82-1.27-.38-.39-.75-.62-1.26-.82-.39-.15-.97-.33-2.04-.38-1.16-.05-1.51-.06-4.44-.06-.37,0-.69,0-.99,0h0c-2.05,0-2.44,.01-3.46,.06-1.07,.05-1.65,.23-2.04,.38-.51,.2-.88,.44-1.27,.82s-.62,.75-.82,1.27c-.15,.39-.33,.97-.38,2.04-.05,1.16-.06,1.51-.06,4.44s.01,3.29,.06,4.45c.05,1.07,.23,1.65,.38,2.04,.2,.51,.44,.88,.82,1.26s.75,.62,1.27,.82c.39,.15,.97,.33,2.04,.38,1.16,.05,1.51,.06,4.44,.06s3.29-.01,4.44-.06c1.07-.05,1.66-.23,2.04-.38,.51-.2,.88-.44,1.26-.82,.38-.38,.62-.75,.82-1.26,.15-.39,.33-.97,.38-2.04,.05-1.16,.06-1.51,.06-4.44s-.01-3.28-.06-4.44c-.05-1.07-.23-1.65-.38-2.04Zm-8.57,12.14c-3.12,0-5.65-2.53-5.65-5.65s2.53-5.65,5.65-5.65h0c3.12,0,5.65,2.53,5.65,5.65s-2.53,5.65-5.65,5.65Zm5.87-10.2c-.73,0-1.32-.59-1.32-1.32s.59-1.32,1.32-1.32h0c.73,0,1.32,.59,1.32,1.32s-.59,1.32-1.32,1.32Z"/>
      <path class="cls-1" d="M18,0C8.06,0,0,8.06,0,18s8.06,18,18,18,18-8.06,18-18S27.94,0,18,0Zm10.97,22.53c-.05,1.17-.24,1.97-.51,2.67-.28,.72-.66,1.34-1.27,1.95-.61,.61-1.22,.99-1.95,1.27-.7,.27-1.5,.46-2.67,.51-1.17,.05-1.55,.07-4.53,.07s-3.36-.01-4.54-.07c-1.17-.05-1.97-.24-2.67-.51-.72-.28-1.34-.66-1.95-1.27-.61-.61-.99-1.23-1.27-1.95-.27-.7-.46-1.5-.51-2.67-.05-1.17-.07-1.55-.07-4.53s.01-3.36,.07-4.54c.05-1.17,.24-1.97,.51-2.67,.28-.72,.66-1.34,1.27-1.95,.61-.61,1.23-.99,1.95-1.27,.7-.27,1.5-.46,2.67-.51,1.17-.05,1.55-.07,4.53-.07h0c2.99,0,3.36,.01,4.53,.07,1.17,.05,1.97,.24,2.67,.51,.72,.28,1.34,.66,1.95,1.27,.61,.61,.99,1.23,1.27,1.95,.27,.7,.46,1.5,.51,2.67,.05,1.17,.07,1.55,.07,4.54s-.01,3.36-.07,4.53Z"/>
    </g>
  </g>
</svg>