<svg xmlns="http://www.w3.org/2000/svg" viewBox="0 0 36.06 36.06"><defs><style>.cls-1{fill:#444;}</style></defs><g id="Layer_2" data-name="Layer 2"><g id="Layer_2-2" data-name="Layer 2"><circle class="cls-1" cx="18.03" cy="18.02" r="3.68"/><path class="cls-1" d="M27,13.56a6.15,6.15,0,0,0-.38-2.05,3.7,3.7,0,0,0-2.1-2.1A6.15,6.15,0,0,0,22.49,9C21.33,9,21,9,18,9s-3.3,0-4.46.06a6.15,6.15,0,0,0-2.05.38,3.7,3.7,0,0,0-2.1,2.1A6.15,6.15,0,0,0,9,13.56C9,14.72,9,15.07,9,18s0,3.3.06,4.46a6.09,6.09,0,0,0,.38,2.05,3.7,3.7,0,0,0,2.1,2.1,6.15,6.15,0,0,0,2.05.38c1.16,0,1.51.07,4.46.07s3.3,0,4.46-.07a6.15,6.15,0,0,0,2.05-.38,3.7,3.7,0,0,0,2.1-2.1A6.09,6.09,0,0,0,27,22.48c.05-1.16.06-1.51.06-4.46S27.07,14.72,27,13.56ZM18,23.69A5.67,5.67,0,1,1,23.7,18,5.67,5.67,0,0,1,18,23.69Zm5.9-10.24a1.33,1.33,0,1,1,1.32-1.32A1.32,1.32,0,0,1,23.93,13.45Zm3.09.11a6.15,6.15,0,0,0-.38-2.05,3.7,3.7,0,0,0-2.1-2.1A6.15,6.15,0,0,0,22.49,9C21.33,9,21,9,18,9s-3.3,0-4.46.06a6.15,6.15,0,0,0-2.05.38,3.7,3.7,0,0,0-2.1,2.1A6.15,6.15,0,0,0,9,13.56C9,14.72,9,15.07,9,18s0,3.3.06,4.46a6.09,6.09,0,0,0,.38,2.05,3.7,3.7,0,0,0,2.1,2.1,6.15,6.15,0,0,0,2.05.38c1.16,0,1.51.07,4.46.07s3.3,0,4.46-.07a6.15,6.15,0,0,0,2.05-.38,3.7,3.7,0,0,0,2.1-2.1A6.09,6.09,0,0,0,27,22.48c.05-1.16.06-1.51.06-4.46S27.07,14.72,27,13.56ZM18,23.69A5.67,5.67,0,1,1,23.7,18,5.67,5.67,0,0,1,18,23.69Zm5.9-10.24a1.33,1.33,0,1,1,1.32-1.32A1.32,1.32,0,0,1,23.93,13.45ZM18,0a18,18,0,1,0,18,18A18,18,0,0,0,18,0ZM29,22.57a8.15,8.15,0,0,1-.52,2.69,5.66,5.66,0,0,1-3.23,3.23,8.06,8.06,0,0,1-2.68.51c-1.17.05-1.55.07-4.55.07s-3.38,0-4.55-.07a8.06,8.06,0,0,1-2.68-.51,5.66,5.66,0,0,1-3.23-3.23,8.15,8.15,0,0,1-.52-2.69C7,21.4,7,21,7,18s0-3.37.06-4.55a8,8,0,0,1,.52-2.68,5.46,5.46,0,0,1,1.27-2,5.37,5.37,0,0,1,2-1.27A8,8,0,0,1,13.48,7C14.65,7,15,7,18,7s3.38,0,4.55.06a8,8,0,0,1,2.68.52,5.37,5.37,0,0,1,2,1.27,5.46,5.46,0,0,1,1.27,2A8,8,0,0,1,29,13.47c0,1.18.06,1.55.06,4.55S29.06,21.4,29,22.57ZM26.64,11.51a3.7,3.7,0,0,0-2.1-2.1A6.15,6.15,0,0,0,22.49,9C21.33,9,21,9,18,9s-3.3,0-4.46.06a6.15,6.15,0,0,0-2.05.38,3.7,3.7,0,0,0-2.1,2.1A6.15,6.15,0,0,0,9,13.56C9,14.72,9,15.07,9,18s0,3.3.06,4.46a6.09,6.09,0,0,0,.38,2.05,3.7,3.7,0,0,0,2.1,2.1,6.15,6.15,0,0,0,2.05.38c1.16,0,1.51.07,4.46.07s3.3,0,4.46-.07a6.15,6.15,0,0,0,2.05-.38,3.7,3.7,0,0,0,2.1-2.1A6.09,6.09,0,0,0,27,22.48c.05-1.16.06-1.51.06-4.46s0-3.3-.06-4.46A6.15,6.15,0,0,0,26.64,11.51ZM18,23.69A5.67,5.67,0,1,1,23.7,18,5.67,5.67,0,0,1,18,23.69Zm5.9-10.24a1.33,1.33,0,1,1,1.32-1.32A1.32,1.32,0,0,1,23.93,13.45Z"/></g></g></svg>