<?xml version="1.0" encoding="UTF-8"?>
<svg id="Layer_2" data-name="Layer 2" xmlns="http://www.w3.org/2000/svg" viewBox="0 0 36 36">
  <defs>
    <style>
      .cls-1 {
        fill: #000;
      }
    </style>
  </defs>
  <g id="Layer_1-2" data-name="Layer 1">
    <g>
      <path class="cls-1" d="M18,0C8.06,0,0,8.06,0,18s8.06,18,18,18,18-8.06,18-18S27.94,0,18,0Zm9.86,25.64c0,1.21-.98,2.18-2.18,2.18H10.39c-1.21,0-2.18-.98-2.18-2.18V10.36c0-1.21,.98-2.18,2.18-2.18h15.29c1.21,0,2.18,.98,2.18,2.18v15.29Z"/>
      <rect class="cls-1" x="11.22" y="15.63" width="2.93" height="9.46"/>
      <path class="cls-1" d="M21.69,15.34c-2.01,0-2.85,1.56-2.85,1.56v-1.27h-2.81v9.46h2.81v-4.97c0-1.33,.61-2.12,1.79-2.12,1.08,0,1.6,.76,1.6,2.12v4.97h2.92v-5.99c0-2.54-1.44-3.76-3.44-3.76Z"/>
      <path class="cls-1" d="M12.67,10.9c-.96,0-1.73,.78-1.73,1.75s.78,1.75,1.73,1.75,1.73-.78,1.73-1.75-.78-1.75-1.73-1.75Z"/>
    </g>
  </g>
</svg>