<?xml version="1.0" encoding="UTF-8"?>
<svg id="Layer_2" data-name="Layer 2" xmlns="http://www.w3.org/2000/svg" viewBox="0 0 36 36">
  <defs>
    <style>
      .cls-1 {
        fill: #000;
      }
    </style>
  </defs>
  <g id="Layer_1-2" data-name="Layer 1">
    <g id="Layer_2-2" data-name="Layer 2-2">
      <path class="cls-1" d="M24.02,11.57c.62,.7,.93,1.66,.93,2.86v5.87h-2.36v-5.7c0-1.2-.5-1.81-1.53-1.81-1.13,0-1.7,.72-1.7,2.15v3.12h-2.34v-3.12c0-1.43-.57-2.15-1.7-2.15-1.02,0-1.53,.61-1.53,1.81v5.7h-2.35v-5.87c0-1.2,.31-2.16,.93-2.86,.64-.71,1.48-1.07,2.52-1.07,1.2,0,2.11,.46,2.72,1.37l.58,.98,.59-.98c.61-.91,1.52-1.37,2.72-1.37,1.04,0,1.88,.36,2.52,1.07Z"/>
      <path class="cls-1" d="M18,0C8.06,0,0,8.06,0,18s8.06,18,18,18,18-8.06,18-18S27.94,0,18,0Zm10.41,16.95c0,.14-.02,1.4-.03,1.54-.22,3.37-2.34,4.71-4.58,5.13-.03,.01-.07,.02-.1,.02-1.42,.28-2.94,.35-4.38,.39-.35,.01-.69,.01-1.04,.01-1.43,0-2.86-.17-4.25-.5h-.02s-.02,0-.02,0c0,0-.02,.01-.02,.02v.02c.04,.45,.14,.89,.29,1.31,.19,.49,.87,1.67,3.38,1.67,1.45,0,2.9-.17,4.32-.5h.02s.02,0,.02,.01c.01,0,.01,.01,.02,.02v1.7s-.01,.01-.02,.01c-.46,.34-1.09,.53-1.63,.69-.24,.08-.48,.14-.72,.2-2.21,.5-4.52,.38-6.67-.35-2-.69-4.05-2.4-4.55-4.45-.27-1.11-.46-2.24-.57-3.37-.16-1.71-.17-3.43-.24-5.15-.05-1.2-.02-2.5,.23-3.68,.54-2.39,2.73-4.06,5.13-4.42,.41-.06,1.2-.28,4.86-.28h.02c3.66,0,5.24,.22,5.65,.28,2.47,.37,4.56,2.23,4.88,4.59,.17,1.76,.02,4.62,.02,5.08Z"/>
    </g>
  </g>
</svg>