<?xml version="1.0" encoding="UTF-8"?>
<svg id="Layer_2" data-name="Layer 2" xmlns="http://www.w3.org/2000/svg" viewBox="0 0 36 36">
  <defs>
    <style>
      .cls-1 {
        fill: #000;
      }
    </style>
  </defs>
  <g id="Layer_1-2" data-name="Layer 1">
    <path class="cls-1" d="M18,0C8.06,0,0,8.06,0,18s8.06,18,18,18,18-8.06,18-18S27.94,0,18,0Zm-4.76,24.25c-3.43,0-6.2-2.8-6.2-6.25s2.78-6.25,6.2-6.25,6.2,2.8,6.2,6.25-2.78,6.25-6.2,6.25Zm9.91-.37c-1.71,0-3.1-2.63-3.1-5.88s1.39-5.88,3.1-5.88,3.1,2.63,3.1,5.88-1.39,5.88-3.1,5.88Zm4.8-.61c-.6,0-1.09-2.36-1.09-5.27s.49-5.27,1.09-5.27,1.09,2.36,1.09,5.27-.49,5.27-1.09,5.27Z"/>
  </g>
</svg>