<?xml version="1.0" encoding="UTF-8"?>
<svg id="Layer_2" data-name="Layer 2" xmlns="http://www.w3.org/2000/svg" viewBox="0 0 36 36">
  <defs>
    <style>
      .cls-1 {
        fill: #000;
      }
    </style>
  </defs>
  <g id="Layer_1-2" data-name="Layer 1">
    <g id="Layer_2-2" data-name="Layer 2-2">
      <path class="cls-1" d="M18,0C8.06,0,0,8.06,0,18s8.06,18,18,18,18-8.06,18-18S27.94,0,18,0Zm.03,29c-1.13,0-2.22-.17-3.25-.49,.44-.73,1.12-1.93,1.36-2.89,.14-.51,.69-2.61,.69-2.61,.36,.68,1.41,1.26,2.52,1.26,3.32,0,5.71-3.05,5.71-6.84s-2.97-6.35-6.78-6.35c-4.75,0-7.27,3.18-7.27,6.65,0,1.62,.86,3.63,2.23,4.27,.21,.09,.32,.05,.37-.15,.04-.15,.22-.9,.3-1.25,.03-.11,.02-.21-.07-.31-.46-.56-.82-1.57-.82-2.51,0-2.43,1.84-4.78,4.97-4.78,2.7,0,4.59,1.84,4.59,4.48,0,2.97-1.5,5.03-3.46,5.03-1.08,0-1.88-.89-1.63-1.98,.32-1.31,.92-2.72,.92-3.67,0-.84-.46-1.55-1.4-1.55-1.1,0-1.99,1.15-1.99,2.68,0,.97,.33,1.63,.33,1.63,0,0-1.09,4.61-1.29,5.47-.22,.95-.13,2.29-.04,3.16-4.09-1.61-6.99-5.59-6.99-10.25,0-6.08,4.93-11,11-11s11,4.92,11,11-4.92,11-11,11Z"/>
    </g>
  </g>
</svg>