<?xml version="1.0" encoding="UTF-8"?>
<svg id="Layer_2" data-name="Layer 2" xmlns="http://www.w3.org/2000/svg" viewBox="0 0 36 36">
  <defs>
    <style>
      .cls-1 {
        fill: #444;
      }
    </style>
  </defs>
  <g id="Layer_1-2" data-name="Layer 1">
    <path class="cls-1" d="M18,0C8.06,0,0,8.06,0,18s8.06,18,18,18,18-8.06,18-18S27.94,0,18,0Zm8.54,27.15v.26c-1.36,.57-2.96,.35-4.12-.68l1.47-1.08s.1-.07,.18-.13c.34-.25,1.06-.77,1.58-.77,.14,0,.48,0,.7,.77,.14,.46,.19,.74,.2,1.02,0,0,0,.31-.01,.61Zm1.4-.69c-.27,.29-.58,.53-.9,.71,.01-.32,.01-.65,.01-.65-.01-.31-.07-.63-.22-1.14-.66-2.26-2.72-.48-3.24-.13l-1.54,1.13c-2.61,1.7-6.82,1.91-10.09-.03-4.75-2.82-6.35-8.93-3.55-13.69,1.86-3.17,5.19-4.93,8.62-4.93,.08,0,.17,0,.25,.01,.08,0,.17,0,.25,.01,1.57,.07,3.13,.51,4.57,1.36,3.74,2.2,5.53,6.46,4.75,10.51-.14-.06-.42-.17-.64-.24-.82-.25-1.7-.38-2.54-.38-.9,0-1.76,.14-2.57,.43-.22,.07-.45,.16-.71,.27,1.1-1.86,.48-4.24-1.38-5.34-.46-.27-.97-.44-1.48-.49-.08-.02-.17-.03-.25-.03-.08-.02-.17-.02-.25-.02-1.34,0-2.64,.69-3.37,1.93-1.09,1.86-.47,4.25,1.39,5.34t.01,.01c1.4,.82,3.11,.67,4.33-.26,0,0,.01,0,.01-.01,.84-.55,1.39-.77,1.86-.93,2.1-.73,4.01-.28,4.8-.04,.29,.09,.61,.22,.68,.26,.38,.17,.73,.41,1.03,.7,1.61,1.51,1.69,4.04,.17,5.64Z"/>
  </g>
</svg>