<?xml version="1.0" encoding="UTF-8"?>
<svg id="Layer_2" data-name="Layer 2" xmlns="http://www.w3.org/2000/svg" viewBox="0 0 36 36">
  <defs>
    <style>
      .cls-1 {
        fill: #000;
      }
    </style>
  </defs>
  <g id="Layer_1-2" data-name="Layer 1">
    <g id="Layer_2-2" data-name="Layer 2-2">
      <path class="cls-1" d="M23.05,22.77s-.03,.06-.05,.08c-.17,.33-.58,.45-.9,.27-.04-.01-.07-.03-.1-.06-1.42-.84-3.02-1.34-4.68-1.47-1.65-.11-3.32,.03-4.94,.41-.26,.08-.54,.01-.73-.2-.17-.18-.22-.45-.13-.69,.08-.21,.25-.37,.47-.43,.91-.21,1.83-.35,2.76-.44,.48,0,1-.06,1.44-.08,1.9-.02,3.77,.39,5.49,1.18,.35,.17,.69,.36,1,.55,.35,.15,.51,.54,.37,.88Z"/>
      <path class="cls-1" d="M24.48,19.32c.04,.48-.32,.89-.79,.93-.18,.01-.35-.03-.51-.13-.76-.46-1.57-.84-2.42-1.13-1.38-.44-2.81-.69-4.27-.73-1.46-.04-2.91,.14-4.32,.54-.44,.19-.94-.03-1.12-.46-.18-.44,.03-.95,.47-1.13,.05-.02,.11-.03,.16-.05,1.16-.34,2.35-.55,3.55-.6,1.68-.09,3.37,.07,5,.47,1.36,.33,2.66,.87,3.86,1.58,.25,.16,.4,.43,.39,.71Z"/>
      <path class="cls-1" d="M25.94,16.3c-.08,.15-.2,.28-.35,.37-.31,.23-.72,.26-1.06,.07-1.85-1.01-3.89-1.62-6-1.79-1.59-.2-3.2-.2-4.79,0-.73,.1-1.44,.28-2.15,.45-.5,.13-1.02-.12-1.23-.61-.17-.48,.06-1.02,.52-1.24,.17-.07,.35-.13,.52-.18,1.28-.33,2.59-.52,3.9-.57h1.08c2.39-.03,4.76,.35,7,1.14,.75,.27,1.46,.6,2.14,1,.5,.26,.69,.87,.42,1.36Z"/>
      <path class="cls-1" d="M18,0C8.06,0,0,8.06,0,18s8.06,18,18,18,18-8.06,18-18S27.94,0,18,0Zm0,29c-.09,0-.17,0-.26-.01-6.07-.13-10.88-5.17-10.74-11.24,.13-6.08,5.17-10.89,11.24-10.75,5.98,.14,10.76,5.02,10.76,10.99,.01,6.08-4.93,11.01-11,11.01Z"/>
    </g>
  </g>
</svg>