<svg xmlns="http://www.w3.org/2000/svg" viewBox="0 0 36.01 36.01"><defs><style>.cls-1{fill:#444;}</style></defs><g id="Layer_2" data-name="Layer 2"><g id="Layer_1-2" data-name="Layer 1"><g id="Layer_2-2" data-name="Layer 2"><path class="cls-1" d="M23.12,22.86a.67.67,0,0,1-1,.21,10.75,10.75,0,0,0-4.68-1.47,16.42,16.42,0,0,0-4.94.41.71.71,0,0,1-.73-.2.65.65,0,0,1-.13-.69.66.66,0,0,1,.47-.43,19.82,19.82,0,0,1,2.76-.44c.48,0,1-.06,1.44-.08a12.71,12.71,0,0,1,5.49,1.18c.35.17.69.36,1,.55A.67.67,0,0,1,23.12,22.86Z"/><path class="cls-1" d="M24.6,19.33a.86.86,0,0,1-1.3.8A12,12,0,0,0,20.88,19a15.06,15.06,0,0,0-4.27-.73,14,14,0,0,0-4.32.54.86.86,0,1,1-.49-1.64,14.26,14.26,0,0,1,3.55-.6,16.86,16.86,0,0,1,5,.47,13.83,13.83,0,0,1,3.86,1.58A.82.82,0,0,1,24.6,19.33Z"/><path class="cls-1" d="M25.71,16.68a1,1,0,0,1-1.06.07,14.94,14.94,0,0,0-6-1.79,19.19,19.19,0,0,0-4.79,0c-.73.1-1.44.28-2.15.45a1.05,1.05,0,0,1-1.23-.61A1,1,0,0,1,11,13.56a2.9,2.9,0,0,1,.52-.18,17.74,17.74,0,0,1,3.9-.57h1.08a20.07,20.07,0,0,1,7,1.14,12.29,12.29,0,0,1,2.14,1A1,1,0,0,1,25.71,16.68Z"/><path class="cls-1" d="M22.14.48A18,18,0,1,0,35.52,22.14,18,18,0,0,0,22.14.48ZM17.86,29A11,11,0,1,1,29.11,18,11,11,0,0,1,17.86,29Z"/></g></g></g></svg>