<?xml version="1.0" encoding="UTF-8"?>
<svg id="Layer_2" data-name="Layer 2" xmlns="http://www.w3.org/2000/svg" viewBox="0 0 36 36">
  <defs>
    <style>
      .cls-1 {
        fill: #000;
      }
    </style>
  </defs>
  <g id="Layer_1-2" data-name="Layer 1">
    <g>
      <polygon class="cls-1" points="10.2 15.94 12.06 15.94 12.06 21.04 13.26 21.04 13.26 15.94 15.13 15.94 15.13 14.95 10.2 14.95 10.2 15.94"/>
      <path class="cls-1" d="M18,0C8.06,0,0,8.06,0,18s8.06,18,18,18,18-8.06,18-18S27.94,0,18,0Zm8.22,9.81c1.27,0,2.3,1.03,2.3,2.3s-1.03,2.3-2.3,2.3-2.3-1.03-2.3-2.3,1.03-2.3,2.3-2.3Zm-7.16-2.05c1.84,0,3.33,1.49,3.33,3.33s-1.35,3.19-3.07,3.32h0v-1.61c0-.52-.42-.93-.94-.94h-2.56c-.06-.25-.09-.5-.09-.77,0-1.84,1.49-3.33,3.33-3.33ZM7.04,22.69V13.31c0-.52,.42-.94,.93-.94h9.38c.26,0,.5,.11,.66,.27,.05,.05,.09,.09,.12,.14,.1,.15,.16,.34,.16,.53v9.38c0,.51-.42,.93-.94,.93H7.97c-.51,0-.93-.42-.93-.93Zm22-1.1c0,1.97-1.6,3.57-3.58,3.57h-.01c-.54,0-1.06-.12-1.52-.34-.88,1.96-2.83,3.35-5.13,3.41-2.36-.06-4.35-1.53-5.2-3.58h4.78c.12,0,.24-.03,.35-.07,.35-.15,.58-.49,.59-.87V15.44h8.74c.54,0,.98,.43,.98,.97v5.18Z"/>
    </g>
  </g>
</svg>