<?xml version="1.0" encoding="UTF-8"?>
<svg id="Layer_2" data-name="Layer 2" xmlns="http://www.w3.org/2000/svg" viewBox="0 0 36 36">
  <defs>
    <style>
      .cls-1 {
        fill: #000;
      }
    </style>
  </defs>
  <g id="Layer_1-2" data-name="Layer 1">
    <path class="cls-1" d="M18,0C8.06,0,0,8.06,0,18s8.06,18,18,18,18-8.06,18-18S27.94,0,18,0Zm10.48,10.65l-3.3,15.71c-.36,1.63-1.61,.9-1.73,.83h-.02s-4.79-3.49-4.79-3.49c-.1-.07-.23-.06-.32,.02l-2.74,2.45c-.1,.08-.23,.09-.34,.03-.07-.06-.12-.14-.12-.24l.38-4.52c0-.07,.04-.13,.09-.17,.87-.78,8.69-7.79,9.02-8.2,.29-.37-.17-.32-.33-.29-.03,0-.06,.02-.09,.03l-11.45,7.14c-.06,.04-.14,.05-.21,.03l-4.62-1.49h-.02c-1.55-.61-.45-1.28-.29-1.37,.01,0,.02-.01,.03-.02l19.39-7.5s.02-.01,.04-.01c.09-.02,.67-.19,1.08,.15,.39,.32,.35,.87,.34,.92Z"/>
  </g>
</svg>