<?xml version="1.0" encoding="UTF-8"?>
<svg id="Layer_2" data-name="Layer 2" xmlns="http://www.w3.org/2000/svg" viewBox="0 0 36 36">
  <defs>
    <style>
      .cls-1 {
        fill: #444;
      }
    </style>
  </defs>
  <g id="Layer_1-2" data-name="Layer 1">
    <g id="Layer_2-2" data-name="Layer 2-2">
      <path class="cls-1" d="M19.06,18.28c.71,0,1.38,.07,1.99,.21-.23,2.83-1.56,3.29-2.73,3.35-1.19,.07-2.44-.47-2.5-1.62-.04-.85,.61-1.8,2.57-1.92,.23-.01,.45-.02,.67-.02Z"/>
      <path class="cls-1" d="M18,0C8.06,0,0,8.06,0,18s8.06,18,18,18,18-8.06,18-18S27.94,0,18,0Zm-5.72,24.57c1.29,1.63,3.26,2.47,5.88,2.49,2.35-.02,3.91-.58,5.21-1.87,1.48-1.48,1.45-3.3,.98-4.4-.28-.65-.78-1.19-1.46-1.6-.17,1.23-.54,2.21-1.14,2.97-.78,.99-1.9,1.54-3.33,1.62-1.08,.06-2.12-.2-2.92-.74-.96-.63-1.52-1.59-1.58-2.71-.12-2.22,1.64-3.81,4.37-3.97,.97-.05,1.87-.01,2.71,.13-.11-.68-.34-1.21-.67-1.61-.46-.53-1.18-.81-2.12-.81h-.03c-.76,0-1.79,.21-2.44,1.21l-1.58-1.09c.88-1.33,2.3-2.06,4.02-2.06h.04c2.87,.02,4.58,1.81,4.75,4.94,.1,.04,.19,.08,.29,.13,1.34,.64,2.32,1.61,2.83,2.81,.72,1.67,.78,4.39-1.39,6.56-1.66,1.66-3.68,2.41-6.54,2.43h-.01c-3.22-.02-5.69-1.1-7.35-3.22-1.48-1.88-2.24-4.49-2.27-7.77v-.02c.03-3.28,.79-5.89,2.27-7.77,1.66-2.12,4.13-3.2,7.35-3.22h.01c3.23,.02,5.73,1.1,7.44,3.21,.84,1.03,1.46,2.29,1.86,3.74l-1.85,.49c-.33-1.18-.82-2.19-1.47-3-1.34-1.64-3.35-2.48-5.98-2.5-2.62,.02-4.59,.86-5.88,2.49-1.2,1.53-1.82,3.74-1.85,6.57,.03,2.83,.65,5.04,1.85,6.57Z"/>
    </g>
  </g>
</svg>