<?xml version="1.0" encoding="UTF-8"?>
<svg id="Layer_2" data-name="Layer 2" xmlns="http://www.w3.org/2000/svg" viewBox="0 0 36 36">
  <defs>
    <style>
      .cls-1 {
        fill: #000;
      }
    </style>
  </defs>
  <g id="Layer_1-2" data-name="Layer 1">
    <g id="Layer_2-2" data-name="Layer 2-2">
      <path class="cls-1" d="M18,0C8.06,0,0,8.06,0,18s8.06,18,18,18,18-8.06,18-18S27.94,0,18,0Zm9.53,16.03s-1.32-.05-2.31-.31c-1.37-.37-2.25-.93-2.25-.93,0,0-.61-.41-.66-.43v7.75c0,.43-.11,1.51-.45,2.4-.3,.77-.73,1.48-1.27,2.11,0,0-.84,1.04-2.32,1.75-1.34,.63-2.52,.61-2.87,.63,0,0-2.02,.08-3.85-1.16h-.01c-.62-.43-1.17-.95-1.64-1.55-.58-.73-.93-1.61-1.03-1.87h0c-.14-.44-.45-1.5-.4-2.51,.07-1.8,.67-2.9,.83-3.18,.42-.75,.97-1.43,1.62-1.99,1.5-1.26,3.46-1.84,5.41-1.59v3.85c-.32-.1-.65-.15-.99-.15-1.76,0-3.18,1.43-3.18,3.2s1.42,3.21,3.18,3.21c.55,0,1.09-.14,1.57-.41,.92-.53,1.53-1.48,1.61-2.55v-.04s0-.04,0-.07c.01-.19,.01-.38,.01-.58V7h3.77s-.01,.08-.01,.22c0,.16,.01,.4,.06,.7,.11,.68,.42,1.64,1.25,2.59,.33,.36,.71,.67,1.11,.94,.14,.09,.29,.18,.44,.26,.96,.48,1.91,.62,2.37,.57v3.75Z"/>
    </g>
  </g>
</svg>