<?xml version="1.0" encoding="UTF-8"?>
<svg id="Layer_2" data-name="Layer 2" xmlns="http://www.w3.org/2000/svg" viewBox="0 0 36 36">
  <defs>
    <style>
      .cls-1 {
        fill: #000;
      }
    </style>
  </defs>
  <g id="Layer_1-2" data-name="Layer 1">
    <g id="Layer_2-2" data-name="Layer 2-2">
      <path class="cls-1" d="M18,0C8.06,0,0,8.06,0,18s8.06,18,18,18,18-8.06,18-18S27.94,0,18,0Zm.01,28.99c-4.93,.22-9.11-3.59-9.33-8.52-.15-3.27,1.5-6.35,4.29-8.05,.11-.07,.25,0,.25,.13,.06,.66,.23,2.32,.97,3.32h.07c4.2-1.45,4.91-5.22,4.38-8.68,0-.13,.1-.22,.21-.18,4.02,1.96,8.54,6.25,8.54,12.69,0,4.93-3.82,9.29-9.38,9.29Z"/>
    </g>
  </g>
</svg>