<?xml version="1.0" encoding="UTF-8"?>
<svg id="Layer_2" data-name="Layer 2" xmlns="http://www.w3.org/2000/svg" viewBox="0 0 36 36">
  <defs>
    <style>
      .cls-1 {
        fill: #000;
      }
    </style>
  </defs>
  <g id="Layer_1-2" data-name="Layer 1">
    <path class="cls-1" d="M18,0C8.06,0,0,8.06,0,18s8.06,18,18,18,18-8.06,18-18S27.94,0,18,0Zm2.6,29c-4.9,.08-6.43-3.41-6.43-5.87v-6.81h-2.59v-3.22c3.41-1.2,4.23-4.21,4.42-5.93,.01-.12,.11-.16,.16-.16h3.29v5.57h4.18v3.75h-4.19v6.47c.02,.93,.36,2.22,2.16,2.17h0c.6-.02,1.4-.19,1.81-.38l1.08,3.14c-.41,.58-2.24,1.26-3.89,1.29Z"/>
  </g>
</svg>