<svg xmlns="http://www.w3.org/2000/svg" viewBox="0 0 36.07 36.07"><defs><style>.cls-1{fill:#444;}</style></defs><g id="Layer_2" data-name="Layer 2"><g id="Layer_2-2" data-name="Layer 2"><path class="cls-1" d="M36.07,18A18,18,0,1,1,18,0,18,18,0,0,1,36.07,18ZM14.73,27.55A12.3,12.3,0,0,0,27.11,15.18c0-.19,0-.38,0-.56a9,9,0,0,0,2.17-2.26,8.56,8.56,0,0,1-2.5.69,4.33,4.33,0,0,0,1.91-2.41,8.64,8.64,0,0,1-2.75,1.06,4.36,4.36,0,0,0-7.53,3,4,4,0,0,0,.12,1,12.33,12.33,0,0,1-9-4.54,4.34,4.34,0,0,0,1.35,5.8,4.32,4.32,0,0,1-2-.54v.05a4.35,4.35,0,0,0,3.49,4.27,4.83,4.83,0,0,1-1.15.15,4.47,4.47,0,0,1-.82-.08,4.34,4.34,0,0,0,4.06,3,8.78,8.78,0,0,1-5.4,1.86,7.08,7.08,0,0,1-1-.07,12.05,12.05,0,0,0,6.64,2"/></g></g></svg>