<?xml version="1.0" encoding="UTF-8"?>
<svg id="Layer_2" data-name="Layer 2" xmlns="http://www.w3.org/2000/svg" viewBox="0 0 36 36">
  <defs>
    <style>
      .cls-1 {
        fill: #000;
      }
    </style>
  </defs>
  <g id="Layer_1-2" data-name="Layer 1">
    <g id="Layer_2-2" data-name="Layer 2-2">
      <path class="cls-1" d="M18,0C8.06,0,0,8.06,0,18s8.06,18,18,18,18-8.06,18-18S27.94,0,18,0Zm8.72,14.14v.73c-.04,7.02-5.77,12.67-12.79,12.62l-.03,.06c-2.44-.01-4.83-.73-6.86-2.07,.34,.04,.69,.07,1.03,.07,2.03,0,3.99-.68,5.58-1.92-1.91-.03-3.59-1.28-4.19-3.1,.28,.05,.56,.08,.84,.09,.41-.01,.81-.07,1.19-.16-2.1-.42-3.6-2.27-3.6-4.41v-.05c.64,.35,1.34,.54,2.06,.56-1.97-1.33-2.58-3.95-1.39-5.99,2.29,2.8,5.67,4.51,9.29,4.68-.08-.34-.12-.69-.12-1.03,0-1.25,.52-2.44,1.42-3.28,1.8-1.71,4.65-1.62,6.36,.18,1-.2,1.96-.58,2.84-1.09-.33,1.04-1.03,1.92-1.97,2.49,.89-.12,1.76-.35,2.58-.72-.6,.9-1.37,1.7-2.24,2.34Z"/>
    </g>
  </g>
</svg>