<?xml version="1.0" encoding="UTF-8"?>
<svg id="Layer_2" data-name="Layer 2" xmlns="http://www.w3.org/2000/svg" viewBox="0 0 36 36">
  <g id="Layer_1-2" data-name="Layer 1">
    <g>
      <path d="M18,0C8.06,0,0,8.06,0,18s8.06,18,18,18,18-8.06,18-18S27.94,0,18,0Zm10.51,18.64l-.02,.03-.04,.07c-.04,.06-.09,.14-.16,.24-.13,.2-.31,.47-.55,.81-.61,.87-1.25,1.7-1.9,2.44-.97,1.11-1.95,2.02-2.89,2.7-1.53,1.1-3.08,1.66-4.6,1.66s-3.02-.53-4.6-1.59c-.97-.66-2.01-1.54-3.06-2.62-.71-.73-1.43-1.54-2.12-2.4-.26-.33-.48-.6-.62-.79-.08-.1-.14-.18-.18-.24l-.05-.07-.02-.02-.04-.06-.04-.06c-.23-.37-.47-.81-.57-1.47-.2-1.27,.26-2.53,1.25-3.39,.67-.56,1.52-.87,2.4-.87,.27,0,.55,.03,.81,.09,.88,.2,1.6,.68,2.15,1.41h0s.02,.04,.02,.04l.02,.03,.12,.16c.11,.15,.27,.36,.48,.61,.12,.15,.26,.32,.42,.51,.1-1.74,.86-3.44,2.26-4.7,1.26-1.13,2.9-1.76,4.6-1.76,1.95,0,3.81,.83,5.11,2.27l.21,.23c1.39,1.51,2.2,3.34,2.15,4.88-.01,.65-.2,1.29-.55,1.86Z"/>
      <path d="M25.16,13.5h0s-.22-.24-.22-.24c-.89-.99-2.12-1.5-3.35-1.5-1.08,0-2.16,.39-3.02,1.16-1.85,1.67-2,4.52-.33,6.38l1.06,1.18c.09,.1,.18,.18,.27,.26l.29,.26-.33,.19c-.48,.28-.88,.4-1.18,.4-.4,0-1.01-.22-1.81-.75-.76-.51-1.54-1.22-2.27-1.96-.72-.74-1.35-1.48-1.8-2.04-.23-.28-.41-.51-.53-.67-.06-.08-.1-.15-.13-.19-.02-.02-.03-.03-.04-.04h-.01v-.02c-.17-.23-.4-.43-.79-.52-.09-.02-.18-.03-.27-.03-.28,0-.6,.09-.86,.31-.42,.36-.51,.84-.45,1.22,.04,.25,.11,.38,.23,.57l.02,.02s.02,.03,.04,.06c.03,.05,.09,.12,.16,.21,.13,.18,.33,.43,.57,.74,.49,.6,1.17,1.41,1.97,2.22,.79,.81,1.72,1.66,2.69,2.31,.95,.64,2.09,1.2,3.28,1.2s2.32-.57,3.22-1.22c.92-.67,1.77-1.52,2.49-2.34,.71-.82,1.32-1.64,1.75-2.24,.21-.31,.38-.56,.5-.74,.06-.09,.11-.17,.14-.22,.01-.02,.03-.04,.04-.06v-.02c.14-.21,.2-.44,.21-.66v-.07c0-.92-.59-2.14-1.54-3.16Zm-1.55,3.45v.03s-.03,.02-.03,.02c-.39,.55-.91,1.24-1.51,1.93l-.02,.02-.19,.22-1.65-1.64h-.01c-.69-.77-.63-1.95,.14-2.64,.36-.33,.8-.48,1.25-.48,.51,0,1.02,.2,1.39,.61l.21,.24c.21,.23,.39,.49,.48,.77,.09,.29,.08,.61-.06,.92Z"/>
    </g>
  </g>
</svg>