<?xml version="1.0" encoding="UTF-8"?>
<svg id="Layer_2" data-name="Layer 2" xmlns="http://www.w3.org/2000/svg" viewBox="0 0 36 36">
  <defs>
    <style>
      .cls-1 {
        fill: #444;
      }
    </style>
  </defs>
  <g id="Layer_1-2" data-name="Layer 1">
    <path class="cls-1" d="M18,0C8.06,0,0,8.06,0,18s8.06,18,18,18,18-8.06,18-18S27.94,0,18,0Zm7.13,24.86c-.84-2.61-2.93-4.63-5.69-4.91v4.91h-.43c-7.52,0-11.8-5.15-11.98-13.73h3.77c.12,6.29,2.9,8.96,5.1,9.51V11.14h3.55v5.43c2.17-.23,4.45-2.71,5.22-5.43h3.55c-.59,3.35-3.06,5.83-4.82,6.84,1.76,.82,4.58,2.98,5.65,6.88h-3.9Z"/>
  </g>
</svg>