<?xml version="1.0" encoding="UTF-8"?>
<svg id="Layer_2" data-name="Layer 2" xmlns="http://www.w3.org/2000/svg" viewBox="0 0 36 36">
  <defs>
    <style>
      .cls-1 {
        fill: #444;
      }
    </style>
  </defs>
  <g id="Layer_1-2" data-name="Layer 1">
    <g>
      <path class="cls-1" d="M15.42,16.95c-3.64,.36-6.4,2.59-6.17,4.98,.24,2.39,3.38,4.04,7.02,3.68,3.64-.36,6.4-2.59,6.16-4.98-.23-2.39-3.38-4.04-7.02-3.68Zm3.2,5.64c-.74,1.68-2.88,2.58-4.7,1.99-1.75-.56-2.49-2.29-1.72-3.85,.75-1.53,2.71-2.39,4.44-1.94,1.79,.46,2.71,2.16,1.98,3.8Z"/>
      <path class="cls-1" d="M14.91,21.3c-.56-.24-1.29,0-1.64,.55-.35,.55-.19,1.2,.37,1.46,.57,.26,1.32,.01,1.68-.55,.35-.57,.16-1.21-.41-1.46Z"/>
      <path class="cls-1" d="M16.3,20.73c-.22-.09-.49,.02-.61,.23-.12,.21-.06,.46,.16,.55,.22,.09,.5-.01,.63-.23,.12-.22,.04-.47-.18-.55Z"/>
      <path class="cls-1" d="M18,0C8.06,0,0,8.06,0,18s8.06,18,18,18,18-8.06,18-18S27.94,0,18,0Zm-1.74,26.91c-4.56,0-9.23-2.21-9.23-5.85,0-1.9,1.21-4.1,3.28-6.18,2.77-2.77,6-4.03,7.22-2.82,.53,.54,.59,1.46,.24,2.57-.18,.56,.52,.25,.52,.25,2.24-.94,4.2-.99,4.91,.03,.38,.55,.35,1.31,0,2.19-.16,.41,.05,.47,.36,.56,1.26,.39,2.67,1.34,2.67,3.01,0,2.76-3.98,6.24-9.96,6.24Zm7.97-12.93c-.34-.38-.85-.53-1.32-.42-.39,.09-.77-.16-.86-.56-.08-.39,.17-.78,.56-.86,.96-.21,1.99,.09,2.7,.87,.7,.78,.89,1.84,.59,2.77-.12,.38-.53,.59-.91,.47-.38-.12-.59-.53-.47-.91,.15-.46,.05-.97-.29-1.36Zm4.51,2.72h0c-.14,.44-.62,.69-1.06,.54-.44-.14-.69-.62-.54-1.06,.44-1.36,.16-2.91-.87-4.05s-2.54-1.57-3.94-1.27c-.46,.1-.9-.19-1-.65-.1-.45,.19-.9,.65-1,1.97-.42,4.1,.19,5.54,1.79,1.44,1.6,1.84,3.78,1.22,5.69Z"/>
    </g>
  </g>
</svg>