<?xml version="1.0" encoding="UTF-8"?>
<svg id="Layer_2" data-name="Layer 2" xmlns="http://www.w3.org/2000/svg" viewBox="0 0 36 36">
  <defs>
    <style>
      .cls-1 {
        fill: #444;
        fill-rule: evenodd;
      }
    </style>
  </defs>
  <g id="Layer_1-2" data-name="Layer 1">
    <g>
      <path class="cls-1" d="M18.07,10.29c-4.21,0-7.63,3.42-7.63,7.62,0,1.44,.41,2.84,1.17,4.06l.19,.29-.78,2.82,2.89-.76,.28,.17c1.17,.69,2.51,1.06,3.88,1.06,2.11,0,4.01-.85,5.39-2.23,1.39-1.38,2.24-3.29,2.24-5.39,0-2.02-.8-3.97-2.23-5.4-1.43-1.44-3.37-2.24-5.4-2.23Zm4.49,10.91c-.19,.54-1.13,1.05-1.55,1.09-.42,.04-.82,.19-2.75-.57-2.33-.92-3.8-3.31-3.92-3.46-.11-.15-.94-1.24-.94-2.37s.59-1.68,.8-1.91c.21-.23,.46-.29,.61-.29h.44c.16,.01,.34,.02,.52,.4h0c.2,.45,.65,1.59,.71,1.7,.06,.11,.1,.25,.02,.4-.08,.15-.11,.25-.23,.38-.11,.13-.24,.3-.34,.4-.12,.11-.23,.24-.1,.47,.13,.23,.59,.98,1.28,1.59,.88,.78,1.62,1.02,1.84,1.14,.23,.11,.36,.1,.5-.06,.13-.15,.57-.67,.73-.9,.15-.23,.31-.19,.52-.11,.21,.08,1.34,.63,1.57,.75,.23,.11,.38,.17,.44,.27,.06,.1,.06,.55-.13,1.09Z"/>
      <path class="cls-1" d="M18,0C8.06,0,0,8.06,0,18s8.06,18,18,18,18-8.06,18-18S27.94,0,18,0Zm.07,27.1c-1.54,0-3.05-.39-4.39-1.12l-4.87,1.27,1.3-4.76c-.8-1.39-1.23-2.98-1.23-4.59,0-5.06,4.12-9.17,9.18-9.17,2.45,0,4.76,.96,6.5,2.69,1.73,1.73,2.68,4.04,2.68,6.49,0,5.06-4.12,9.18-9.18,9.18Z"/>
    </g>
  </g>
</svg>