<?xml version="1.0" encoding="UTF-8"?>
<svg id="Layer_2" data-name="Layer 2" xmlns="http://www.w3.org/2000/svg" viewBox="0 0 36 36">
  <defs>
    <style>
      .cls-1 {
        fill: #444;
      }
    </style>
  </defs>
  <g id="Layer_1-2" data-name="Layer 1">
    <g id="Layer_2-2" data-name="Layer 2-2">
      <path class="cls-1" d="M18.87,19.89c-.37-.3-1.01-.1-1.1,.38h1.28c-.01-.17-.07-.29-.18-.38Zm0,0c-.37-.3-1.01-.1-1.1,.38h1.28c-.01-.17-.07-.29-.18-.38Zm0,0c-.37-.3-1.01-.1-1.1,.38h1.28c-.01-.17-.07-.29-.18-.38Zm0,0c-.37-.3-1.01-.1-1.1,.38h1.28c-.01-.17-.07-.29-.18-.38Zm-7.63-4.76c-.05-.11-.13-.19-.23-.25-.11-.06-.23-.09-.38-.09-.21,0-.38,.07-.5,.2-.11,.14-.17,.31-.17,.52,0,.15,.03,.27,.08,.38,.06,.11,.14,.19,.24,.26,.11,.06,.22,.09,.35,.09,.15,0,.28-.03,.38-.1,.1-.06,.18-.15,.23-.26,.05-.11,.08-.23,.08-.37s-.03-.27-.08-.38Zm7.63,4.76c-.37-.3-1.01-.1-1.1,.38h1.28c-.01-.17-.07-.29-.18-.38Zm0,0c-.37-.3-1.01-.1-1.1,.38h1.28c-.01-.17-.07-.29-.18-.38Zm-7.63-4.76c-.05-.11-.13-.19-.23-.25-.11-.06-.23-.09-.38-.09-.21,0-.38,.07-.5,.2-.11,.14-.17,.31-.17,.52,0,.15,.03,.27,.08,.38,.06,.11,.14,.19,.24,.26,.11,.06,.22,.09,.35,.09,.15,0,.28-.03,.38-.1,.1-.06,.18-.15,.23-.26,.05-.11,.08-.23,.08-.37s-.03-.27-.08-.38Zm0,0c-.05-.11-.13-.19-.23-.25-.11-.06-.23-.09-.38-.09-.21,0-.38,.07-.5,.2-.11,.14-.17,.31-.17,.52,0,.15,.03,.27,.08,.38,.06,.11,.14,.19,.24,.26,.11,.06,.22,.09,.35,.09,.15,0,.28-.03,.38-.1,.1-.06,.18-.15,.23-.26,.05-.11,.08-.23,.08-.37s-.03-.27-.08-.38Zm7.63,4.76c-.37-.3-1.01-.1-1.1,.38h1.28c-.01-.17-.07-.29-.18-.38Zm0,0c-.37-.3-1.01-.1-1.1,.38h1.28c-.01-.17-.07-.29-.18-.38Zm-7.63-4.76c-.05-.11-.13-.19-.23-.25-.11-.06-.23-.09-.38-.09-.21,0-.38,.07-.5,.2-.11,.14-.17,.31-.17,.52,0,.15,.03,.27,.08,.38,.06,.11,.14,.19,.24,.26,.11,.06,.22,.09,.35,.09,.15,0,.28-.03,.38-.1,.1-.06,.18-.15,.23-.26,.05-.11,.08-.23,.08-.37s-.03-.27-.08-.38Zm0,0c-.05-.11-.13-.19-.23-.25-.11-.06-.23-.09-.38-.09-.21,0-.38,.07-.5,.2-.11,.14-.17,.31-.17,.52,0,.15,.03,.27,.08,.38,.06,.11,.14,.19,.24,.26,.11,.06,.22,.09,.35,.09,.15,0,.28-.03,.38-.1,.1-.06,.18-.15,.23-.26,.05-.11,.08-.23,.08-.37s-.03-.27-.08-.38Zm4.88,0c-.05-.11-.13-.19-.23-.25-.1-.06-.23-.09-.37-.09-.22,0-.38,.07-.5,.2-.12,.14-.18,.31-.18,.52,0,.15,.03,.27,.09,.38s.14,.19,.24,.26c.1,.06,.22,.09,.35,.09,.15,0,.27-.03,.38-.1,.1-.06,.17-.15,.23-.26,.05-.11,.07-.23,.07-.37s-.02-.27-.08-.38Zm2.75,4.76c-.37-.3-1.01-.1-1.1,.38h1.28c-.01-.17-.07-.29-.18-.38Zm0,0c-.37-.3-1.01-.1-1.1,.38h1.28c-.01-.17-.07-.29-.18-.38Zm-2.75-4.76c-.05-.11-.13-.19-.23-.25-.1-.06-.23-.09-.37-.09-.22,0-.38,.07-.5,.2-.12,.14-.18,.31-.18,.52,0,.15,.03,.27,.09,.38s.14,.19,.24,.26c.1,.06,.22,.09,.35,.09,.15,0,.27-.03,.38-.1,.1-.06,.17-.15,.23-.26,.05-.11,.07-.23,.07-.37s-.02-.27-.08-.38Zm-4.88,0c-.05-.11-.13-.19-.23-.25-.11-.06-.23-.09-.38-.09-.21,0-.38,.07-.5,.2-.11,.14-.17,.31-.17,.52,0,.15,.03,.27,.08,.38,.06,.11,.14,.19,.24,.26,.11,.06,.22,.09,.35,.09,.15,0,.28-.03,.38-.1,.1-.06,.18-.15,.23-.26,.05-.11,.08-.23,.08-.37s-.03-.27-.08-.38Zm0,0c-.05-.11-.13-.19-.23-.25-.11-.06-.23-.09-.38-.09-.21,0-.38,.07-.5,.2-.11,.14-.17,.31-.17,.52,0,.15,.03,.27,.08,.38,.06,.11,.14,.19,.24,.26,.11,.06,.22,.09,.35,.09,.15,0,.28-.03,.38-.1,.1-.06,.18-.15,.23-.26,.05-.11,.08-.23,.08-.37s-.03-.27-.08-.38Zm4.88,0c-.05-.11-.13-.19-.23-.25-.1-.06-.23-.09-.37-.09-.22,0-.38,.07-.5,.2-.12,.14-.18,.31-.18,.52,0,.15,.03,.27,.09,.38s.14,.19,.24,.26c.1,.06,.22,.09,.35,.09,.15,0,.27-.03,.38-.1,.1-.06,.17-.15,.23-.26,.05-.11,.07-.23,.07-.37s-.02-.27-.08-.38Zm2.75,4.76c-.37-.3-1.01-.1-1.1,.38h1.28c-.01-.17-.07-.29-.18-.38Zm2.14-4.76c-.06-.11-.13-.19-.24-.25-.1-.06-.22-.09-.37-.09-.21,0-.38,.07-.5,.2-.11,.14-.17,.31-.17,.52,0,.15,.03,.27,.08,.38,.06,.11,.14,.19,.24,.26,.11,.06,.22,.09,.35,.09,.15,0,.28-.03,.38-.1,.1-.06,.18-.15,.23-.26s.08-.23,.08-.37-.03-.27-.08-.38Zm3.5,0c-.05-.11-.13-.19-.23-.25-.11-.06-.23-.09-.38-.09-.21,0-.38,.07-.5,.2-.11,.14-.17,.31-.17,.52,0,.15,.03,.27,.09,.38,.05,.11,.13,.19,.24,.26,.1,.06,.21,.09,.34,.09,.15,0,.28-.03,.38-.1,.1-.06,.18-.15,.23-.26s.08-.23,.08-.37-.03-.27-.08-.38Zm0,0c-.05-.11-.13-.19-.23-.25-.11-.06-.23-.09-.38-.09-.21,0-.38,.07-.5,.2-.11,.14-.17,.31-.17,.52,0,.15,.03,.27,.09,.38,.05,.11,.13,.19,.24,.26,.1,.06,.21,.09,.34,.09,.15,0,.28-.03,.38-.1,.1-.06,.18-.15,.23-.26s.08-.23,.08-.37-.03-.27-.08-.38Zm-3.5,0c-.06-.11-.13-.19-.24-.25-.1-.06-.22-.09-.37-.09-.21,0-.38,.07-.5,.2-.11,.14-.17,.31-.17,.52,0,.15,.03,.27,.08,.38,.06,.11,.14,.19,.24,.26,.11,.06,.22,.09,.35,.09,.15,0,.28-.03,.38-.1,.1-.06,.18-.15,.23-.26s.08-.23,.08-.37-.03-.27-.08-.38Zm-2.14,4.76c-.37-.3-1.01-.1-1.1,.38h1.28c-.01-.17-.07-.29-.18-.38Zm-2.75-4.76c-.05-.11-.13-.19-.23-.25-.1-.06-.23-.09-.37-.09-.22,0-.38,.07-.5,.2-.12,.14-.18,.31-.18,.52,0,.15,.03,.27,.09,.38s.14,.19,.24,.26c.1,.06,.22,.09,.35,.09,.15,0,.27-.03,.38-.1,.1-.06,.17-.15,.23-.26,.05-.11,.07-.23,.07-.37s-.02-.27-.08-.38Zm-4.88,0c-.05-.11-.13-.19-.23-.25-.11-.06-.23-.09-.38-.09-.21,0-.38,.07-.5,.2-.11,.14-.17,.31-.17,.52,0,.15,.03,.27,.08,.38,.06,.11,.14,.19,.24,.26,.11,.06,.22,.09,.35,.09,.15,0,.28-.03,.38-.1,.1-.06,.18-.15,.23-.26,.05-.11,.08-.23,.08-.37s-.03-.27-.08-.38Zm0,0c-.05-.11-.13-.19-.23-.25-.11-.06-.23-.09-.38-.09-.21,0-.38,.07-.5,.2-.11,.14-.17,.31-.17,.52,0,.15,.03,.27,.08,.38,.06,.11,.14,.19,.24,.26,.11,.06,.22,.09,.35,.09,.15,0,.28-.03,.38-.1,.1-.06,.18-.15,.23-.26,.05-.11,.08-.23,.08-.37s-.03-.27-.08-.38Zm4.88,0c-.05-.11-.13-.19-.23-.25-.1-.06-.23-.09-.37-.09-.22,0-.38,.07-.5,.2-.12,.14-.18,.31-.18,.52,0,.15,.03,.27,.09,.38s.14,.19,.24,.26c.1,.06,.22,.09,.35,.09,.15,0,.27-.03,.38-.1,.1-.06,.17-.15,.23-.26,.05-.11,.07-.23,.07-.37s-.02-.27-.08-.38Zm2.75,4.76c-.37-.3-1.01-.1-1.1,.38h1.28c-.01-.17-.07-.29-.18-.38Zm2.14-4.76c-.06-.11-.13-.19-.24-.25-.1-.06-.22-.09-.37-.09-.21,0-.38,.07-.5,.2-.11,.14-.17,.31-.17,.52,0,.15,.03,.27,.08,.38,.06,.11,.14,.19,.24,.26,.11,.06,.22,.09,.35,.09,.15,0,.28-.03,.38-.1,.1-.06,.18-.15,.23-.26s.08-.23,.08-.37-.03-.27-.08-.38Zm3.5,0c-.05-.11-.13-.19-.23-.25-.11-.06-.23-.09-.38-.09-.21,0-.38,.07-.5,.2-.11,.14-.17,.31-.17,.52,0,.15,.03,.27,.09,.38,.05,.11,.13,.19,.24,.26,.1,.06,.21,.09,.34,.09,.15,0,.28-.03,.38-.1,.1-.06,.18-.15,.23-.26s.08-.23,.08-.37-.03-.27-.08-.38Zm3.9-.21c-.11-.09-.25-.14-.42-.14-.18,0-.33,.05-.45,.14-.12,.1-.19,.22-.23,.38h1.28c-.01-.17-.08-.29-.18-.38Zm0,0c-.11-.09-.25-.14-.42-.14-.18,0-.33,.05-.45,.14-.12,.1-.19,.22-.23,.38h1.28c-.01-.17-.08-.29-.18-.38Zm-3.9,.21c-.05-.11-.13-.19-.23-.25-.11-.06-.23-.09-.38-.09-.21,0-.38,.07-.5,.2-.11,.14-.17,.31-.17,.52,0,.15,.03,.27,.09,.38,.05,.11,.13,.19,.24,.26,.1,.06,.21,.09,.34,.09,.15,0,.28-.03,.38-.1,.1-.06,.18-.15,.23-.26s.08-.23,.08-.37-.03-.27-.08-.38Zm-3.5,0c-.06-.11-.13-.19-.24-.25-.1-.06-.22-.09-.37-.09-.21,0-.38,.07-.5,.2-.11,.14-.17,.31-.17,.52,0,.15,.03,.27,.08,.38,.06,.11,.14,.19,.24,.26,.11,.06,.22,.09,.35,.09,.15,0,.28-.03,.38-.1,.1-.06,.18-.15,.23-.26s.08-.23,.08-.37-.03-.27-.08-.38Zm-2.14,4.76c-.37-.3-1.01-.1-1.1,.38h1.28c-.01-.17-.07-.29-.18-.38Zm-2.75-4.76c-.05-.11-.13-.19-.23-.25-.1-.06-.23-.09-.37-.09-.22,0-.38,.07-.5,.2-.12,.14-.18,.31-.18,.52,0,.15,.03,.27,.09,.38s.14,.19,.24,.26c.1,.06,.22,.09,.35,.09,.15,0,.27-.03,.38-.1,.1-.06,.17-.15,.23-.26,.05-.11,.07-.23,.07-.37s-.02-.27-.08-.38Zm-4.88,0c-.05-.11-.13-.19-.23-.25-.11-.06-.23-.09-.38-.09-.21,0-.38,.07-.5,.2-.11,.14-.17,.31-.17,.52,0,.15,.03,.27,.08,.38,.06,.11,.14,.19,.24,.26,.11,.06,.22,.09,.35,.09,.15,0,.28-.03,.38-.1,.1-.06,.18-.15,.23-.26,.05-.11,.08-.23,.08-.37s-.03-.27-.08-.38Zm-.14,4.96c-.07-.11-.15-.19-.26-.25-.1-.06-.22-.09-.34-.09-.13,0-.25,.03-.36,.09-.1,.06-.19,.14-.26,.25-.07,.11-.1,.24-.1,.4,0,.15,.03,.29,.1,.4,.07,.1,.15,.19,.26,.24,.11,.06,.23,.09,.36,.09,.12,0,.24-.03,.34-.09,.11-.05,.19-.14,.26-.24,.07-.11,.1-.25,.1-.4s-.03-.29-.1-.4Zm.14-4.96c-.05-.11-.13-.19-.23-.25-.11-.06-.23-.09-.38-.09-.21,0-.38,.07-.5,.2-.11,.14-.17,.31-.17,.52,0,.15,.03,.27,.08,.38,.06,.11,.14,.19,.24,.26,.11,.06,.22,.09,.35,.09,.15,0,.28-.03,.38-.1,.1-.06,.18-.15,.23-.26,.05-.11,.08-.23,.08-.37s-.03-.27-.08-.38Zm4.88,0c-.05-.11-.13-.19-.23-.25-.1-.06-.23-.09-.37-.09-.22,0-.38,.07-.5,.2-.12,.14-.18,.31-.18,.52,0,.15,.03,.27,.09,.38s.14,.19,.24,.26c.1,.06,.22,.09,.35,.09,.15,0,.27-.03,.38-.1,.1-.06,.17-.15,.23-.26,.05-.11,.07-.23,.07-.37s-.02-.27-.08-.38Zm2.75,4.76c-.37-.3-1.01-.1-1.1,.38h1.28c-.01-.17-.07-.29-.18-.38Zm2.14-4.76c-.06-.11-.13-.19-.24-.25-.1-.06-.22-.09-.37-.09-.21,0-.38,.07-.5,.2-.11,.14-.17,.31-.17,.52,0,.15,.03,.27,.08,.38,.06,.11,.14,.19,.24,.26,.11,.06,.22,.09,.35,.09,.15,0,.28-.03,.38-.1,.1-.06,.18-.15,.23-.26s.08-.23,.08-.37-.03-.27-.08-.38Zm3.5,0c-.05-.11-.13-.19-.23-.25-.11-.06-.23-.09-.38-.09-.21,0-.38,.07-.5,.2-.11,.14-.17,.31-.17,.52,0,.15,.03,.27,.09,.38,.05,.11,.13,.19,.24,.26,.1,.06,.21,.09,.34,.09,.15,0,.28-.03,.38-.1,.1-.06,.18-.15,.23-.26s.08-.23,.08-.37-.03-.27-.08-.38Zm3.9-.21c-.11-.09-.25-.14-.42-.14-.18,0-.33,.05-.45,.14-.12,.1-.19,.22-.23,.38h1.28c-.01-.17-.08-.29-.18-.38Zm0,0c-.11-.09-.25-.14-.42-.14-.18,0-.33,.05-.45,.14-.12,.1-.19,.22-.23,.38h1.28c-.01-.17-.08-.29-.18-.38Zm-3.9,.21c-.05-.11-.13-.19-.23-.25-.11-.06-.23-.09-.38-.09-.21,0-.38,.07-.5,.2-.11,.14-.17,.31-.17,.52,0,.15,.03,.27,.09,.38,.05,.11,.13,.19,.24,.26,.1,.06,.21,.09,.34,.09,.15,0,.28-.03,.38-.1,.1-.06,.18-.15,.23-.26s.08-.23,.08-.37-.03-.27-.08-.38Zm-3.5,0c-.06-.11-.13-.19-.24-.25-.1-.06-.22-.09-.37-.09-.21,0-.38,.07-.5,.2-.11,.14-.17,.31-.17,.52,0,.15,.03,.27,.08,.38,.06,.11,.14,.19,.24,.26,.11,.06,.22,.09,.35,.09,.15,0,.28-.03,.38-.1,.1-.06,.18-.15,.23-.26s.08-.23,.08-.37-.03-.27-.08-.38Zm-2.14,4.76c-.37-.3-1.01-.1-1.1,.38h1.28c-.01-.17-.07-.29-.18-.38Zm-2.75-4.76c-.05-.11-.13-.19-.23-.25-.1-.06-.23-.09-.37-.09-.22,0-.38,.07-.5,.2-.12,.14-.18,.31-.18,.52,0,.15,.03,.27,.09,.38s.14,.19,.24,.26c.1,.06,.22,.09,.35,.09,.15,0,.27-.03,.38-.1,.1-.06,.17-.15,.23-.26,.05-.11,.07-.23,.07-.37s-.02-.27-.08-.38Zm-4.88,0c-.05-.11-.13-.19-.23-.25-.11-.06-.23-.09-.38-.09-.21,0-.38,.07-.5,.2-.11,.14-.17,.31-.17,.52,0,.15,.03,.27,.08,.38,.06,.11,.14,.19,.24,.26,.11,.06,.22,.09,.35,.09,.15,0,.28-.03,.38-.1,.1-.06,.18-.15,.23-.26,.05-.11,.08-.23,.08-.37s-.03-.27-.08-.38Zm-.14,4.96c-.07-.11-.15-.19-.26-.25-.1-.06-.22-.09-.34-.09-.13,0-.25,.03-.36,.09-.1,.06-.19,.14-.26,.25-.07,.11-.1,.24-.1,.4,0,.15,.03,.29,.1,.4,.07,.1,.15,.19,.26,.24,.11,.06,.23,.09,.36,.09,.12,0,.24-.03,.34-.09,.11-.05,.19-.14,.26-.24,.07-.11,.1-.25,.1-.4s-.03-.29-.1-.4ZM18,0C8.06,0,0,8.06,0,18s8.06,18,18,18,18-8.06,18-18S27.94,0,18,0Zm7.51,14.48h.41v.58s.03-.11,.06-.18c.04-.07,.08-.14,.14-.21,.05-.07,.12-.12,.21-.17,.08-.04,.18-.06,.3-.06v.4c-.15,0-.27,.03-.37,.1-.11,.07-.19,.15-.24,.24-.04,.07-.08,.14-.1,.2v1.17h-.41v-2.07Zm-8.5-.83h.4v1.45c.01-.07,.03-.13,.06-.2,.05-.09,.11-.17,.18-.24,.07-.07,.15-.13,.25-.16,.09-.04,.2-.06,.31-.06,.12,0,.22,.01,.32,.04,.09,.04,.18,.09,.24,.15,.07,.07,.13,.14,.16,.24,.04,.09,.06,.2,.06,.32v1.36h-.41v-1.24c0-.11-.02-.2-.05-.28-.04-.07-.09-.12-.16-.16-.08-.04-.17-.06-.28-.06-.12,0-.24,.03-.34,.09-.1,.05-.18,.13-.25,.22-.05,.08-.08,.15-.09,.24v1.19h-.4v-2.9ZM7.89,22.35h-.43l.41-.86-.87-2.04h.44l.63,1.59,.64-1.59h.44l-1.26,2.9Zm1.33-5.8h-.41v-1.24c0-.11-.02-.2-.05-.28-.04-.07-.09-.12-.16-.16-.08-.04-.17-.06-.28-.06-.12,0-.24,.03-.34,.09-.1,.05-.18,.13-.25,.22-.05,.08-.08,.15-.09,.24v1.19h-.4v-2.9h.4v1.45c.01-.07,.03-.13,.06-.2,.05-.09,.11-.17,.18-.24,.07-.07,.15-.13,.25-.16,.09-.04,.2-.06,.31-.06,.12,0,.22,.01,.32,.04,.09,.04,.18,.09,.24,.15,.07,.07,.13,.14,.16,.24,.04,.09,.06,.2,.06,.32v1.36Zm2.24,4.52c-.1,.16-.24,.28-.4,.36-.17,.09-.36,.13-.56,.13-.21,0-.4-.04-.57-.13-.17-.08-.3-.2-.41-.36-.1-.16-.15-.36-.15-.58s.05-.42,.15-.58c.11-.16,.24-.29,.41-.37,.17-.09,.36-.13,.57-.13s.39,.04,.56,.13c.16,.08,.3,.21,.4,.37,.1,.16,.15,.35,.15,.58s-.05,.42-.15,.58Zm.26-4.52h-.37c-.01-.11-.02-.19-.03-.26v-.42c-.03,.12-.07,.24-.14,.35-.06,.11-.15,.2-.25,.27-.11,.06-.25,.1-.41,.1-.18,0-.34-.05-.49-.14-.15-.09-.27-.22-.35-.38-.09-.16-.13-.35-.13-.56s.04-.39,.13-.55c.09-.16,.21-.29,.36-.38,.15-.1,.32-.14,.51-.14,.21,0,.38,.05,.49,.14,.12,.1,.2,.23,.25,.39,.02,.05,.03,.1,.03,.16v-.65h.4v2.07Zm2.28,4.97h-.4v-.69c-.02,.07-.05,.14-.08,.23-.04,.08-.08,.16-.14,.24-.06,.08-.14,.14-.23,.19s-.2,.07-.34,.07c-.09,0-.18-.01-.27-.03-.1-.03-.18-.07-.26-.13s-.14-.14-.19-.24c-.05-.1-.07-.23-.07-.38v-1.33h.41v1.24c0,.13,.02,.23,.06,.3,.04,.08,.1,.13,.17,.16,.07,.03,.16,.05,.26,.05,.14,0,.26-.04,.36-.11,.1-.07,.18-.15,.23-.26,.04-.07,.07-.14,.09-.22v-1.16h.4v2.07Zm.1-4.97h-.41v-1.24c0-.11,0-.2-.05-.28-.03-.07-.09-.12-.16-.16s-.17-.06-.28-.06c-.12,0-.23,.03-.33,.09-.11,.05-.19,.13-.25,.22-.04,.06-.07,.12-.09,.19v1.24h-.41v-2.9h.41v1.4s.04-.1,.06-.15c.04-.09,.1-.17,.17-.24,.07-.07,.16-.13,.25-.16,.1-.04,.2-.06,.32-.06,.11,0,.22,.01,.31,.04,.1,.04,.18,.09,.25,.15,.07,.07,.12,.14,.16,.24,.03,.09,.05,.2,.05,.32v1.36Zm.46-.48c-.08-.16-.13-.35-.13-.56s.05-.39,.13-.55c.09-.16,.21-.29,.37-.38,.15-.1,.32-.14,.51-.14,.21,0,.37,.05,.49,.14,.11,.1,.2,.23,.24,.39,.01,.04,.02,.08,.03,.13v-.62h.41v2.07h-.38c-.01-.11-.01-.19-.02-.26-.01-.08-.01-.14-.01-.2v-.19c-.03,.11-.07,.22-.13,.32-.06,.11-.15,.2-.26,.27-.11,.06-.25,.1-.41,.1-.18,0-.34-.05-.49-.14-.14-.09-.26-.22-.35-.38Zm2.38,5.21c-.06,.09-.15,.16-.27,.21s-.26,.07-.42,.07c-.15,0-.28-.01-.39-.05-.1-.04-.19-.08-.26-.14s-.13-.12-.17-.19c-.03-.06-.06-.12-.07-.18s-.02-.11-.01-.15h.37c.02,.1,.07,.19,.16,.26,.08,.07,.2,.11,.36,.11,.1,0,.17-.02,.23-.04,.05-.02,.09-.05,.11-.09,.03-.04,.04-.09,.04-.14,0-.06-.02-.11-.05-.15-.03-.03-.08-.06-.14-.08-.06-.02-.13-.05-.22-.07-.09-.02-.19-.05-.28-.08-.09-.03-.18-.07-.25-.12-.08-.05-.14-.11-.19-.18-.04-.07-.07-.16-.07-.26,0-.08,.02-.17,.06-.24,.04-.07,.09-.14,.17-.19,.07-.06,.15-.1,.25-.13,.1-.03,.2-.04,.31-.04,.16,0,.3,.03,.41,.08,.11,.06,.19,.14,.25,.24,.06,.1,.09,.22,.09,.36h-.36c-.02-.12-.06-.2-.12-.25-.06-.06-.15-.08-.27-.08s-.21,.02-.28,.07c-.06,.04-.09,.11-.09,.18,0,.06,.02,.11,.06,.15,.04,.04,.1,.07,.18,.1,.08,.02,.16,.05,.26,.08,.09,.03,.17,.06,.26,.09,.08,.03,.16,.07,.22,.11,.07,.05,.12,.1,.15,.17,.04,.07,.06,.15,.06,.25,0,.12-.03,.23-.09,.32Zm.92-.37c.25,.42,1.04,.42,1.2-.06h.39c-.24,1.16-2.2,.81-2.11-.36-.06-1.44,2.39-1.44,2.12,.09h-1.71c.01,.12,.05,.23,.11,.33Zm3.13-1.1c-.34-.02-.62,.26-.71,.56v1.15h-.4v-2.07h.4v.61c.03-.14,.11-.3,.2-.42,.14-.14,.29-.24,.51-.23v.4Zm.1-3.52v-.42c-.03,.12-.07,.24-.14,.35-.06,.11-.15,.2-.26,.27-.1,.06-.24,.1-.4,.1-.18,0-.34-.05-.49-.14-.15-.09-.27-.22-.35-.38-.09-.16-.13-.35-.13-.56s.04-.39,.13-.55c.09-.16,.21-.29,.36-.38,.15-.1,.32-.14,.51-.14,.21,0,.38,.05,.49,.14,.12,.1,.2,.23,.25,.39,.02,.05,.03,.1,.03,.16v-.65h.4v2.07h-.37c-.01-.11-.02-.19-.03-.26Zm.7,5.23h-.41v-2.07h.41v2.07Zm.05-2.5h-.5v-.42h.5v.42Zm2.48,2.05c-.1,.16-.23,.28-.4,.36-.33,.18-.8,.17-1.13,0-.74-.33-.73-1.56,0-1.89,.33-.17,.8-.18,1.13,0,.55,.25,.7,1.04,.4,1.53Zm.28-4.78c-.01-.08-.01-.14-.01-.2v-.22c-.03,.12-.07,.24-.14,.35-.06,.11-.15,.2-.25,.27-.11,.06-.25,.1-.41,.1-.18,0-.34-.05-.49-.14-.15-.09-.26-.22-.35-.38-.09-.16-.13-.35-.13-.56s.04-.39,.13-.55c.09-.16,.21-.29,.36-.38,.15-.1,.32-.14,.52-.14s.37,.05,.48,.14c.12,.1,.2,.23,.25,.39,.02,.05,.03,.1,.03,.16v-.65h.4v2.07h-.37c-.01-.11-.02-.19-.02-.26Zm2.27,5.23h-.41v-.69c-.02,.07-.04,.14-.08,.23-.03,.08-.08,.16-.14,.24-.06,.08-.14,.14-.23,.19-.09,.05-.2,.07-.33,.07-.09,0-.19-.01-.28-.03-.09-.03-.18-.07-.26-.13-.07-.06-.14-.14-.18-.24-.05-.1-.07-.23-.07-.38v-1.33h.4v1.24c0,.13,.02,.23,.06,.3,.05,.08,.1,.13,.18,.16,.07,.03,.15,.05,.25,.05,.14,0,.27-.04,.36-.11,.1-.07,.18-.15,.24-.26,.03-.07,.06-.13,.08-.2v-1.18h.41v2.07Zm2.02-.24c-.06,.09-.15,.16-.27,.21-.12,.05-.26,.07-.42,.07-.15,0-.28-.01-.39-.05-.1-.04-.19-.08-.26-.14s-.13-.12-.17-.19c-.03-.06-.06-.12-.07-.18-.02-.06-.02-.11,0-.15h.37c.02,.1,.07,.19,.15,.26,.09,.07,.21,.11,.37,.11,.09,0,.17-.02,.23-.04,.05-.02,.09-.05,.11-.09,.03-.04,.04-.09,.04-.14,0-.06-.02-.11-.05-.15-.03-.03-.08-.06-.14-.08-.06-.02-.14-.05-.22-.07-.1-.02-.19-.05-.28-.08-.09-.03-.18-.07-.25-.12-.08-.05-.14-.11-.19-.18-.04-.07-.07-.16-.07-.26,0-.08,.02-.17,.06-.24,.04-.07,.09-.14,.17-.19,.07-.06,.15-.1,.25-.13,.09-.03,.2-.04,.31-.04,.16,0,.3,.03,.41,.08,.11,.06,.19,.14,.25,.24,.06,.1,.09,.22,.09,.36h-.36c-.02-.12-.06-.2-.12-.25-.06-.06-.15-.08-.27-.08s-.22,.02-.28,.07c-.06,.04-.09,.11-.09,.18,0,.06,.02,.11,.06,.15,.04,.04,.1,.07,.18,.1,.07,.02,.16,.05,.26,.08,.09,.03,.17,.06,.26,.09,.08,.03,.16,.07,.22,.11,.06,.05,.12,.1,.15,.17,.04,.07,.06,.15,.06,.25,0,.12-.03,.23-.09,.32Zm-1.49-5.34c.06,.09,.14,.17,.25,.22,.1,.06,.22,.08,.36,.08,.15,0,.28-.03,.38-.1,.11-.07,.18-.16,.21-.26h.39c-.02,.13-.08,.25-.16,.36s-.19,.19-.33,.26c-.14,.06-.3,.09-.49,.09-.21,0-.41-.04-.58-.13-.17-.09-.31-.22-.4-.38-.1-.16-.15-.35-.15-.56s.05-.41,.14-.57c.1-.16,.23-.28,.4-.38,.17-.09,.36-.13,.57-.13,.23,0,.42,.04,.58,.13,.15,.09,.26,.22,.34,.39,.07,.17,.1,.39,.09,.65h-1.72c.02,.12,.06,.23,.12,.33Zm.59-1.16c-.18,0-.33,.05-.45,.14-.12,.1-.19,.22-.23,.38h1.28c-.01-.17-.08-.29-.18-.38-.11-.09-.25-.14-.42-.14Zm-3.71,.1c-.11-.06-.23-.09-.38-.09-.21,0-.38,.07-.5,.2-.11,.14-.17,.31-.17,.52,0,.15,.03,.27,.09,.38,.05,.11,.13,.19,.24,.26,.1,.06,.21,.09,.34,.09,.15,0,.28-.03,.38-.1,.1-.06,.18-.15,.23-.26s.08-.23,.08-.37-.03-.27-.08-.38-.13-.19-.23-.25Zm-.57,4.96c-.32-.18-.78-.08-.96,.25-.15,.21-.14,.58,0,.8,.07,.1,.16,.19,.27,.24,.21,.12,.48,.12,.7,0,.1-.05,.19-.14,.26-.24,.13-.22,.13-.58,0-.8-.07-.11-.16-.19-.26-.25Zm-2.94-4.96c-.1-.06-.22-.09-.37-.09-.21,0-.38,.07-.5,.2-.11,.14-.17,.31-.17,.52,0,.15,.03,.27,.08,.38,.06,.11,.14,.19,.24,.26,.11,.06,.22,.09,.35,.09,.15,0,.28-.03,.38-.1,.1-.06,.18-.15,.23-.26s.08-.23,.08-.37-.03-.27-.08-.38c-.06-.11-.13-.19-.24-.25Zm-2.31,4.87c-.35,0-.61,.2-.69,.52h1.28c-.01-.33-.28-.52-.59-.52Zm-2.56-3.61c.1-.06,.17-.15,.23-.26,.05-.11,.07-.23,.07-.37s-.02-.27-.08-.38c-.05-.11-.13-.19-.23-.25-.1-.06-.23-.09-.37-.09-.22,0-.38,.07-.5,.2-.12,.14-.18,.31-.18,.52,0,.15,.03,.27,.09,.38s.14,.19,.24,.26c.1,.06,.22,.09,.35,.09,.15,0,.27-.03,.38-.1Zm-4.89-1.26c-.11-.06-.23-.09-.38-.09-.21,0-.38,.07-.5,.2-.11,.14-.17,.31-.17,.52,0,.15,.03,.27,.08,.38,.06,.11,.14,.19,.24,.26,.11,.06,.22,.09,.35,.09,.15,0,.28-.03,.38-.1,.1-.06,.18-.15,.23-.26,.05-.11,.08-.23,.08-.37s-.03-.27-.08-.38c-.05-.11-.13-.19-.23-.25Zm-.17,4.96c-.1-.06-.22-.09-.34-.09-.13,0-.25,.03-.36,.09-.1,.06-.19,.14-.26,.25-.07,.11-.1,.24-.1,.4,0,.15,.03,.29,.1,.4,.07,.1,.15,.19,.26,.24,.11,.06,.23,.09,.36,.09,.12,0,.24-.03,.34-.09,.11-.05,.19-.14,.26-.24,.07-.11,.1-.25,.1-.4s-.03-.29-.1-.4c-.07-.11-.15-.19-.26-.25Zm.4-4.71c-.05-.11-.13-.19-.23-.25-.11-.06-.23-.09-.38-.09-.21,0-.38,.07-.5,.2-.11,.14-.17,.31-.17,.52,0,.15,.03,.27,.08,.38,.06,.11,.14,.19,.24,.26,.11,.06,.22,.09,.35,.09,.15,0,.28-.03,.38-.1,.1-.06,.18-.15,.23-.26,.05-.11,.08-.23,.08-.37s-.03-.27-.08-.38Zm4.88,0c-.05-.11-.13-.19-.23-.25-.1-.06-.23-.09-.37-.09-.22,0-.38,.07-.5,.2-.12,.14-.18,.31-.18,.52,0,.15,.03,.27,.09,.38s.14,.19,.24,.26c.1,.06,.22,.09,.35,.09,.15,0,.27-.03,.38-.1,.1-.06,.17-.15,.23-.26,.05-.11,.07-.23,.07-.37s-.02-.27-.08-.38Zm2.75,4.76c-.37-.3-1.01-.1-1.1,.38h1.28c-.01-.17-.07-.29-.18-.38Zm2.14-4.76c-.06-.11-.13-.19-.24-.25-.1-.06-.22-.09-.37-.09-.21,0-.38,.07-.5,.2-.11,.14-.17,.31-.17,.52,0,.15,.03,.27,.08,.38,.06,.11,.14,.19,.24,.26,.11,.06,.22,.09,.35,.09,.15,0,.28-.03,.38-.1,.1-.06,.18-.15,.23-.26s.08-.23,.08-.37-.03-.27-.08-.38Zm3.5,0c-.05-.11-.13-.19-.23-.25-.11-.06-.23-.09-.38-.09-.21,0-.38,.07-.5,.2-.11,.14-.17,.31-.17,.52,0,.15,.03,.27,.09,.38,.05,.11,.13,.19,.24,.26,.1,.06,.21,.09,.34,.09,.15,0,.28-.03,.38-.1,.1-.06,.18-.15,.23-.26s.08-.23,.08-.37-.03-.27-.08-.38Zm3.9-.21c-.11-.09-.25-.14-.42-.14-.18,0-.33,.05-.45,.14-.12,.1-.19,.22-.23,.38h1.28c-.01-.17-.08-.29-.18-.38Zm0,0c-.11-.09-.25-.14-.42-.14-.18,0-.33,.05-.45,.14-.12,.1-.19,.22-.23,.38h1.28c-.01-.17-.08-.29-.18-.38Zm-3.9,.21c-.05-.11-.13-.19-.23-.25-.11-.06-.23-.09-.38-.09-.21,0-.38,.07-.5,.2-.11,.14-.17,.31-.17,.52,0,.15,.03,.27,.09,.38,.05,.11,.13,.19,.24,.26,.1,.06,.21,.09,.34,.09,.15,0,.28-.03,.38-.1,.1-.06,.18-.15,.23-.26s.08-.23,.08-.37-.03-.27-.08-.38Zm-3.5,0c-.06-.11-.13-.19-.24-.25-.1-.06-.22-.09-.37-.09-.21,0-.38,.07-.5,.2-.11,.14-.17,.31-.17,.52,0,.15,.03,.27,.08,.38,.06,.11,.14,.19,.24,.26,.11,.06,.22,.09,.35,.09,.15,0,.28-.03,.38-.1,.1-.06,.18-.15,.23-.26s.08-.23,.08-.37-.03-.27-.08-.38Zm-2.14,4.76c-.37-.3-1.01-.1-1.1,.38h1.28c-.01-.17-.07-.29-.18-.38Zm-2.75-4.76c-.05-.11-.13-.19-.23-.25-.1-.06-.23-.09-.37-.09-.22,0-.38,.07-.5,.2-.12,.14-.18,.31-.18,.52,0,.15,.03,.27,.09,.38s.14,.19,.24,.26c.1,.06,.22,.09,.35,.09,.15,0,.27-.03,.38-.1,.1-.06,.17-.15,.23-.26,.05-.11,.07-.23,.07-.37s-.02-.27-.08-.38Zm-4.88,0c-.05-.11-.13-.19-.23-.25-.11-.06-.23-.09-.38-.09-.21,0-.38,.07-.5,.2-.11,.14-.17,.31-.17,.52,0,.15,.03,.27,.08,.38,.06,.11,.14,.19,.24,.26,.11,.06,.22,.09,.35,.09,.15,0,.28-.03,.38-.1,.1-.06,.18-.15,.23-.26,.05-.11,.08-.23,.08-.37s-.03-.27-.08-.38Zm0,0c-.05-.11-.13-.19-.23-.25-.11-.06-.23-.09-.38-.09-.21,0-.38,.07-.5,.2-.11,.14-.17,.31-.17,.52,0,.15,.03,.27,.08,.38,.06,.11,.14,.19,.24,.26,.11,.06,.22,.09,.35,.09,.15,0,.28-.03,.38-.1,.1-.06,.18-.15,.23-.26,.05-.11,.08-.23,.08-.37s-.03-.27-.08-.38Zm4.88,0c-.05-.11-.13-.19-.23-.25-.1-.06-.23-.09-.37-.09-.22,0-.38,.07-.5,.2-.12,.14-.18,.31-.18,.52,0,.15,.03,.27,.09,.38s.14,.19,.24,.26c.1,.06,.22,.09,.35,.09,.15,0,.27-.03,.38-.1,.1-.06,.17-.15,.23-.26,.05-.11,.07-.23,.07-.37s-.02-.27-.08-.38Zm2.75,4.76c-.37-.3-1.01-.1-1.1,.38h1.28c-.01-.17-.07-.29-.18-.38Zm2.14-4.76c-.06-.11-.13-.19-.24-.25-.1-.06-.22-.09-.37-.09-.21,0-.38,.07-.5,.2-.11,.14-.17,.31-.17,.52,0,.15,.03,.27,.08,.38,.06,.11,.14,.19,.24,.26,.11,.06,.22,.09,.35,.09,.15,0,.28-.03,.38-.1,.1-.06,.18-.15,.23-.26s.08-.23,.08-.37-.03-.27-.08-.38Zm3.5,0c-.05-.11-.13-.19-.23-.25-.11-.06-.23-.09-.38-.09-.21,0-.38,.07-.5,.2-.11,.14-.17,.31-.17,.52,0,.15,.03,.27,.09,.38,.05,.11,.13,.19,.24,.26,.1,.06,.21,.09,.34,.09,.15,0,.28-.03,.38-.1,.1-.06,.18-.15,.23-.26s.08-.23,.08-.37-.03-.27-.08-.38Zm0,0c-.05-.11-.13-.19-.23-.25-.11-.06-.23-.09-.38-.09-.21,0-.38,.07-.5,.2-.11,.14-.17,.31-.17,.52,0,.15,.03,.27,.09,.38,.05,.11,.13,.19,.24,.26,.1,.06,.21,.09,.34,.09,.15,0,.28-.03,.38-.1,.1-.06,.18-.15,.23-.26s.08-.23,.08-.37-.03-.27-.08-.38Zm-3.5,0c-.06-.11-.13-.19-.24-.25-.1-.06-.22-.09-.37-.09-.21,0-.38,.07-.5,.2-.11,.14-.17,.31-.17,.52,0,.15,.03,.27,.08,.38,.06,.11,.14,.19,.24,.26,.11,.06,.22,.09,.35,.09,.15,0,.28-.03,.38-.1,.1-.06,.18-.15,.23-.26s.08-.23,.08-.37-.03-.27-.08-.38Zm-2.14,4.76c-.37-.3-1.01-.1-1.1,.38h1.28c-.01-.17-.07-.29-.18-.38Zm-2.75-4.76c-.05-.11-.13-.19-.23-.25-.1-.06-.23-.09-.37-.09-.22,0-.38,.07-.5,.2-.12,.14-.18,.31-.18,.52,0,.15,.03,.27,.09,.38s.14,.19,.24,.26c.1,.06,.22,.09,.35,.09,.15,0,.27-.03,.38-.1,.1-.06,.17-.15,.23-.26,.05-.11,.07-.23,.07-.37s-.02-.27-.08-.38Zm-4.88,0c-.05-.11-.13-.19-.23-.25-.11-.06-.23-.09-.38-.09-.21,0-.38,.07-.5,.2-.11,.14-.17,.31-.17,.52,0,.15,.03,.27,.08,.38,.06,.11,.14,.19,.24,.26,.11,.06,.22,.09,.35,.09,.15,0,.28-.03,.38-.1,.1-.06,.18-.15,.23-.26,.05-.11,.08-.23,.08-.37s-.03-.27-.08-.38Zm0,0c-.05-.11-.13-.19-.23-.25-.11-.06-.23-.09-.38-.09-.21,0-.38,.07-.5,.2-.11,.14-.17,.31-.17,.52,0,.15,.03,.27,.08,.38,.06,.11,.14,.19,.24,.26,.11,.06,.22,.09,.35,.09,.15,0,.28-.03,.38-.1,.1-.06,.18-.15,.23-.26,.05-.11,.08-.23,.08-.37s-.03-.27-.08-.38Zm4.88,0c-.05-.11-.13-.19-.23-.25-.1-.06-.23-.09-.37-.09-.22,0-.38,.07-.5,.2-.12,.14-.18,.31-.18,.52,0,.15,.03,.27,.09,.38s.14,.19,.24,.26c.1,.06,.22,.09,.35,.09,.15,0,.27-.03,.38-.1,.1-.06,.17-.15,.23-.26,.05-.11,.07-.23,.07-.37s-.02-.27-.08-.38Zm2.75,4.76c-.37-.3-1.01-.1-1.1,.38h1.28c-.01-.17-.07-.29-.18-.38Zm2.14-4.76c-.06-.11-.13-.19-.24-.25-.1-.06-.22-.09-.37-.09-.21,0-.38,.07-.5,.2-.11,.14-.17,.31-.17,.52,0,.15,.03,.27,.08,.38,.06,.11,.14,.19,.24,.26,.11,.06,.22,.09,.35,.09,.15,0,.28-.03,.38-.1,.1-.06,.18-.15,.23-.26s.08-.23,.08-.37-.03-.27-.08-.38Zm0,0c-.06-.11-.13-.19-.24-.25-.1-.06-.22-.09-.37-.09-.21,0-.38,.07-.5,.2-.11,.14-.17,.31-.17,.52,0,.15,.03,.27,.08,.38,.06,.11,.14,.19,.24,.26,.11,.06,.22,.09,.35,.09,.15,0,.28-.03,.38-.1,.1-.06,.18-.15,.23-.26s.08-.23,.08-.37-.03-.27-.08-.38Zm-2.14,4.76c-.37-.3-1.01-.1-1.1,.38h1.28c-.01-.17-.07-.29-.18-.38Zm-2.75-4.76c-.05-.11-.13-.19-.23-.25-.1-.06-.23-.09-.37-.09-.22,0-.38,.07-.5,.2-.12,.14-.18,.31-.18,.52,0,.15,.03,.27,.09,.38s.14,.19,.24,.26c.1,.06,.22,.09,.35,.09,.15,0,.27-.03,.38-.1,.1-.06,.17-.15,.23-.26,.05-.11,.07-.23,.07-.37s-.02-.27-.08-.38Zm-4.88,0c-.05-.11-.13-.19-.23-.25-.11-.06-.23-.09-.38-.09-.21,0-.38,.07-.5,.2-.11,.14-.17,.31-.17,.52,0,.15,.03,.27,.08,.38,.06,.11,.14,.19,.24,.26,.11,.06,.22,.09,.35,.09,.15,0,.28-.03,.38-.1,.1-.06,.18-.15,.23-.26,.05-.11,.08-.23,.08-.37s-.03-.27-.08-.38Zm0,0c-.05-.11-.13-.19-.23-.25-.11-.06-.23-.09-.38-.09-.21,0-.38,.07-.5,.2-.11,.14-.17,.31-.17,.52,0,.15,.03,.27,.08,.38,.06,.11,.14,.19,.24,.26,.11,.06,.22,.09,.35,.09,.15,0,.28-.03,.38-.1,.1-.06,.18-.15,.23-.26,.05-.11,.08-.23,.08-.37s-.03-.27-.08-.38Zm4.88,0c-.05-.11-.13-.19-.23-.25-.1-.06-.23-.09-.37-.09-.22,0-.38,.07-.5,.2-.12,.14-.18,.31-.18,.52,0,.15,.03,.27,.09,.38s.14,.19,.24,.26c.1,.06,.22,.09,.35,.09,.15,0,.27-.03,.38-.1,.1-.06,.17-.15,.23-.26,.05-.11,.07-.23,.07-.37s-.02-.27-.08-.38Zm2.75,4.76c-.37-.3-1.01-.1-1.1,.38h1.28c-.01-.17-.07-.29-.18-.38Zm0,0c-.37-.3-1.01-.1-1.1,.38h1.28c-.01-.17-.07-.29-.18-.38Zm-2.75-4.76c-.05-.11-.13-.19-.23-.25-.1-.06-.23-.09-.37-.09-.22,0-.38,.07-.5,.2-.12,.14-.18,.31-.18,.52,0,.15,.03,.27,.09,.38s.14,.19,.24,.26c.1,.06,.22,.09,.35,.09,.15,0,.27-.03,.38-.1,.1-.06,.17-.15,.23-.26,.05-.11,.07-.23,.07-.37s-.02-.27-.08-.38Zm-4.88,0c-.05-.11-.13-.19-.23-.25-.11-.06-.23-.09-.38-.09-.21,0-.38,.07-.5,.2-.11,.14-.17,.31-.17,.52,0,.15,.03,.27,.08,.38,.06,.11,.14,.19,.24,.26,.11,.06,.22,.09,.35,.09,.15,0,.28-.03,.38-.1,.1-.06,.18-.15,.23-.26,.05-.11,.08-.23,.08-.37s-.03-.27-.08-.38Zm0,0c-.05-.11-.13-.19-.23-.25-.11-.06-.23-.09-.38-.09-.21,0-.38,.07-.5,.2-.11,.14-.17,.31-.17,.52,0,.15,.03,.27,.08,.38,.06,.11,.14,.19,.24,.26,.11,.06,.22,.09,.35,.09,.15,0,.28-.03,.38-.1,.1-.06,.18-.15,.23-.26,.05-.11,.08-.23,.08-.37s-.03-.27-.08-.38Zm7.63,4.76c-.37-.3-1.01-.1-1.1,.38h1.28c-.01-.17-.07-.29-.18-.38Zm0,0c-.37-.3-1.01-.1-1.1,.38h1.28c-.01-.17-.07-.29-.18-.38Zm-7.63-4.76c-.05-.11-.13-.19-.23-.25-.11-.06-.23-.09-.38-.09-.21,0-.38,.07-.5,.2-.11,.14-.17,.31-.17,.52,0,.15,.03,.27,.08,.38,.06,.11,.14,.19,.24,.26,.11,.06,.22,.09,.35,.09,.15,0,.28-.03,.38-.1,.1-.06,.18-.15,.23-.26,.05-.11,.08-.23,.08-.37s-.03-.27-.08-.38Zm7.63,4.76c-.37-.3-1.01-.1-1.1,.38h1.28c-.01-.17-.07-.29-.18-.38Zm0,0c-.37-.3-1.01-.1-1.1,.38h1.28c-.01-.17-.07-.29-.18-.38Zm0,0c-.37-.3-1.01-.1-1.1,.38h1.28c-.01-.17-.07-.29-.18-.38Zm0,0c-.37-.3-1.01-.1-1.1,.38h1.28c-.01-.17-.07-.29-.18-.38Zm0,0c-.37-.3-1.01-.1-1.1,.38h1.28c-.01-.17-.07-.29-.18-.38Zm0,0c-.37-.3-1.01-.1-1.1,.38h1.28c-.01-.17-.07-.29-.18-.38Z"/>
    </g>
  </g>
</svg>