<?xml version="1.0" encoding="UTF-8"?>
<svg id="Layer_2" data-name="Layer 2" xmlns="http://www.w3.org/2000/svg" viewBox="0 0 36 36">
  <defs>
    <style>
      .cls-1 {
        fill: #000;
      }
    </style>
  </defs>
  <g id="Layer_1-2" data-name="Layer 1">
    <g id="Layer_2-2" data-name="Layer 2-2">
      <path class="cls-1" d="M18,0C8.06,0,0,8.06,0,18s8.06,18,18,18,18-8.06,18-18S27.94,0,18,0Zm-7.55,21.8c-.24-.02-.47-.04-.71-.2-.12-.08-.23-.19-.3-.33-.33-.5-.35-1.25-.35-1.83-.01-.64,.1-1.28,.31-1.89,.06-.15,.13-.29,.22-.43,.04-.06,.09-.12,.14-.18,.11-.11,.23-.2,.38-.26,.13-.05,.28-.08,.42-.07,.22,0,.48,.04,.85,.16,.06,.01,.12,.03,.18,.05,.3,.09,.66,.22,1.07,.36,.64,.22,1.28,.45,1.91,.68l1.13,.41c.21,.07,.41,.16,.6,.27,.17,.09,.31,.21,.42,.35,.09,.12,.15,.25,.18,.38v.02c.14,.59-.22,1.17-.81,1.33-.04,0-.08,.02-.1,.03l-1.03,.23h-.01l-3.43,.78c-.35,.08-.7,.16-1.07,.14Zm7.84,2.32c-.02,.67-.05,1.34-.08,2.01-.02,.44-.04,.82-.07,1.13,0,.06-.01,.13-.01,.18-.04,.39-.09,.64-.18,.85-.05,.13-.13,.26-.23,.36-.11,.11-.25,.19-.39,.25-.08,.02-.15,.04-.23,.06-.08,.01-.16,.03-.24,.03-.08,0-.17,0-.25,0-.5-.03-.99-.12-1.47-.28-.57-.19-1.11-.43-1.61-.77-.13-.09-.25-.2-.36-.32-.05-.06-.09-.13-.14-.19-.08-.13-.13-.28-.15-.43-.02-.15,0-.29,.04-.43,.07-.21,.19-.45,.4-.77,.03-.05,.07-.1,.1-.15,.18-.27,.4-.57,.66-.93,.4-.55,.8-1.09,1.21-1.64l.71-.97c.05-.04,.08-.09,.12-.14,.14-.18,.3-.35,.48-.49,.07-.04,.13-.09,.2-.12l.15-.06c.42-.13,.89,.02,1.15,.38,.07,.12,.13,.24,.16,.37,.08,.28,.09,.58,.08,.86l-.05,1.2Zm.83-13.13c-.09,1.63-.19,3.25-.28,4.88-.03,.48-.03,1.08-.36,1.47-.02,.03-.04,.06-.07,.08-.14,.15-.33,.26-.53,.31h-.04c-.22,.06-.45,.05-.65-.03-.04-.01-.07-.03-.1-.04-.47-.22-.73-.75-.97-1.18-.81-1.41-1.63-2.83-2.43-4.26-.3-.53-.63-1.05-.87-1.62-.2-.48-.46-1.01-.35-1.53,.19-.91,1.33-1.39,2.14-1.65,.25-.08,.51-.15,.77-.21,.25-.06,.51-.1,.77-.14,.85-.12,2.08-.18,2.66,.56,.33,.42,.34,1.01,.37,1.52,.03,.62-.03,1.23-.06,1.84Zm7.36,13.39c-.01,.08-.02,.16-.04,.24-.02,.07-.04,.14-.07,.22-.03,.07-.06,.15-.1,.22-.3,.52-.68,.97-1.11,1.39-.36,.34-.76,.64-1.2,.88-.14,.07-.29,.13-.45,.17-.08,.02-.16,.04-.24,.04-.3,.04-.61-.06-.83-.27-.17-.15-.33-.36-.53-.69-.03-.04-.07-.1-.1-.15-.16-.27-.34-.6-.56-.99-.33-.59-.65-1.18-.97-1.78l-.58-1.05c-.13-.25-.26-.52-.31-.81-.02-.13-.03-.26-.01-.4,.07-.43,.42-.77,.86-.84h.15c.08,0,.16,.01,.24,.02,.23,.05,.45,.12,.65,.23,.06,.02,.11,.06,.17,.08l1.07,.56c.61,.31,1.22,.63,1.82,.95,.39,.21,.73,.39,1,.55,.06,.03,.11,.07,.16,.09,.34,.2,.55,.36,.7,.52,.1,.11,.18,.24,.23,.37,.05,.15,.07,.3,.05,.45Zm.36-6.65c-.13,.24-.34,.36-.55,.48-.31,.18-.67,.26-1.02,.34l-4.46,1.01s-.07,.01-.11,.02c-.6,.11-1.19-.26-1.32-.85v-.02c-.04-.13-.04-.27-.02-.41,.04-.18,.12-.35,.22-.5,.13-.18,.27-.35,.42-.5l.84-.86c.47-.48,.94-.95,1.41-1.43,.31-.31,.57-.57,.81-.79,.04-.04,.09-.08,.13-.12,.28-.26,.5-.41,.69-.51,.13-.07,.28-.11,.42-.12,.16,0,.31,.02,.45,.08,.08,.03,.15,.06,.22,.1,.06,.04,.13,.08,.19,.12,.07,.05,.13,.11,.19,.17,.46,.45,.84,.98,1.12,1.56,.26,.53,.57,1.2,.51,1.8-.02,.15-.06,.3-.14,.43Z"/>
    </g>
  </g>
</svg>