<?xml version="1.0" encoding="UTF-8"?>
<svg id="Layer_2" data-name="Layer 2" xmlns="http://www.w3.org/2000/svg" viewBox="0 0 36 36">
  <defs>
    <style>
      .cls-1 {
        fill: #000;
      }
    </style>
  </defs>
  <g id="Layer_1-2" data-name="Layer 1">
    <g id="Layer_2-2" data-name="Layer 2-2">
      <polygon class="cls-1" points="15.77 14.71 21.51 17.98 15.77 21.24 15.77 14.71"/>
      <path class="cls-1" d="M18,0C8.06,0,0,8.06,0,18s8.06,18,18,18,18-8.06,18-18S27.94,0,18,0Zm10.57,23.33c-.25,.98-1.01,1.73-1.98,1.99-1.71,.45-8.59,.45-8.59,.45,0,0-6.87,0-8.58-.45-.97-.25-1.74-1.01-1.98-1.99-.32-1.75-.48-3.54-.47-5.32-.01-1.79,.15-3.57,.47-5.33,.24-.97,1.01-1.74,1.98-1.98,1.71-.47,8.58-.47,8.58-.47,0,0,6.94,0,8.57,.44,.97,.25,1.74,1.01,1.98,1.98,.33,1.77,.49,3.56,.48,5.36,0,1.78-.14,3.57-.46,5.32Z"/>
    </g>
  </g>
</svg>