<svg xmlns="http://www.w3.org/2000/svg" viewBox="0 0 36.01 36.01"><defs><style>.cls-1{fill:#444;}.cls-2{fill:#fff;}</style></defs><g id="Layer_2" data-name="Layer 2"><g id="Layer_1-2" data-name="Layer 1"><g id="Layer_2-2" data-name="Layer 2"><circle class="cls-1" cx="18" cy="18" r="18"/></g><path class="cls-2" d="M28.65,12.55a2.8,2.8,0,0,0-2-2C25,10.11,18,10.11,18,10.11s-6.94,0-8.67.47a2.77,2.77,0,0,0-2,2,29,29,0,0,0-.47,5.38,28.89,28.89,0,0,0,.47,5.38,2.78,2.78,0,0,0,2,2c1.73.46,8.67.46,8.67.46s6.94,0,8.67-.46a2.81,2.81,0,0,0,2-2,29.51,29.51,0,0,0,.46-5.38A29.57,29.57,0,0,0,28.65,12.55Z"/><polygon class="cls-1" points="15.74 21.23 21.54 17.93 15.74 14.63 15.74 21.23"/></g></g></svg>